<?xml version="1.0" encoding="UTF-8"?>
<svg id="Calque_2" data-name="Calque 2" xmlns="http://www.w3.org/2000/svg" viewBox="0 0 2981.81 2981.81">
  <defs>
    <style>
      .cls-1 {
        fill: none;
      }

      .cls-2 {
        fill: #fff;
      }
    </style>
  </defs>
  <g id="Calque_1-2" data-name="Calque 1">
    <rect class="cls-1" x="0" width="2981.81" height="2981.81"/>
    <g>
      <g>
        <g>
          <path class="cls-2" d="M1705.36,502.43c-1.58-.43-.72,3.55-.87,4.32,4.37,39.43,1.94,125.32-15.74,128.98l-.17-.08c-2.82-.7-5.72-2.79-9.16-5.98-15.76-15.17-36.63-52.79-45.57-77.57-1.6-4.42-2.93-8.51-3.61-11.98-.15-.81-3.28-1.96-4.38-1.85-1.15-.01-1.6.72-1.58,1.57.25,3.06,1.55,7.87,3.65,13.68,9.99,27.68,38.13,79.11,57.83,85,1.16.44,6.45-.33,7.34-.65,23.99-7.95,18.44-114.39,15.96-128.78-.59-3.22-2.25-6.62-3.69-6.67Z"/>
          <path class="cls-2" d="M1723.56,549.44c-.02.72,0,3.57-.11,4.04-.45.73.72,1.6,2.42,1.56,1.36.22,2.88-.33,3.08-.97.15-.77.16-3.91.18-4.64.11-.89-.21-1.78-.4-2.28.02-.72-1.35-1.37-3.13-1.15-1.45-.05-2.75.7-2.47,1.46l.43,1.99Z"/>
          <path class="cls-2" d="M1962.89,445.16c-4.92.63-13.1,4.44-23.57,9.08-1.22.58-2.44,1.17-3.57,1.58-3.05-10.04-5.85-20.18-7.25-26.82-1.29-2.39-6.5-1.37-5.64.61,2.32,8.02,5.3,18.24,8.35,28.28-10.74,5.84-7.07,3.79-15.45,8.68-1.97,1.28,1.87,3.61,4.14,2.36,9.47-5.42,5.03-2.93,12.6-7.08,2.4,7.85,4.84,15.39,6.86,21.38,1.09,3.27,2.49,7.4,4.06,11.9-3.81,5.29-10.05,15.44-16.61,17.81-1.64.59-3.17.72-4.8.16-2.51-1.81-2.85-7.11-3.63-9.26-.68-1.9-3.78-3.35-6.28-2.74-7.35,1.8-14.81,9.63-17.97,14.35l-1.3-4.39c-.15-.81-1.7-1.53-2.93-1.8-1.45-.05-2.67.53-2.35,1.42l1.07,4.24c-3.32,7.49-8.97,19.33-20.74,23.58-4.42,1.6-10.31-.85-11.55-3.11,4.42-1.6,8.76-6.59,8.95-11.23.07-4.17-4.97-6.64-8.89-5.22-4.9,2-6.94,6.94-6.54,11.69-4.9,8.39-11.17,16.66-20.21,20.68-5.69,2.05-10.3-.42-11.12-6.27-.72-5.17,2.27-11.53,7.31-12.21.37,1.44.23,2.63.17,3.23-.29,1.96,1.03,2.06,2.11,1.09,1-.79,3.34-2.63,2.56-4.78-.58-1.22-2.27-2.33-4.23-2.62-1.96-.29-3.7.05-5.09.55-2.78,1-4.65,2.96-5.91,4.99-1.24,2.09-1.76,4.37-1.78,6.64-3.8,5.27-10.07,15.49-16.65,17.87-1.64.59-3.17.72-4.8.16-2.51-1.81-2.85-7.11-3.63-9.26-.68-1.9-3.78-3.35-6.28-2.74-7.35,1.8-14.81,9.63-17.97,14.35l-1.3-4.39c-.15-.81-1.7-1.53-2.93-1.8-1.45-.05-2.67.53-2.35,1.42l1.03,4.07c-3.52,6.3-11.95,18.3-18.9,20.81-1.39.5-2.79.58-4.08.19-2.49-.96-5.12-16.16-4.47-17.53-.1-.68-1.23-1.41-2.8-1.42-1.65.17-2.87.75-2.77,1.43-.61,2.65.04,6.84,1.46,10.76,1.51,4.17,3.94,8.15,6.57,9.49,3.36,1.79,7.05,1.31,10.16.05,6.9-2.84,13.35-12.53,16.04-18.97l1.06,4.22c.29,1.61.88,2.83,1.37,3.79.86,1.98,5.69,1.52,4.97-.08l-.92-2.95c.49-6.18,7.9-15.71,16.89-20.1.29,1.61.67,3.04,1.17,4.43.82,2.28,1.98,4.29,3.93,5.73,3.46,2.47,8.05,2.52,11.72,1.2,7.18-2.59,12.31-9.41,14.86-14.59,3.26,6.84,11.36,8.69,18.12,6.25,10.53-4.5,16.01-12.17,18.6-17.94.24.38.48.76.75,1.1,5.36,6.92,15.47,4.85,22.79,1.78,7.59-3.25,13.04-10.82,14.79-18.51l.76,3.03c.29,1.61.88,2.83,1.37,3.79.86,1.98,5.69,1.52,4.97-.08l-.92-2.95c.49-6.18,7.9-15.71,16.89-20.1.29,1.61.67,3.04,1.17,4.43.82,2.28,1.98,4.29,3.93,5.73,3.46,2.47,8.05,2.52,11.72,1.2,7.57-2.73,12.89-10.19,15.28-15.43.25.69.48,1.35.73,2.05,6.11,16.94,9.83,25.64,12.81,29.56,1.84,2.34,6.72,3.57,5.29.81-3.79-5.35-4.9-6.84-9.55-19.74-4.15-11.51-8.06-23.53-10.86-31.66l-6.78-21.55c1.01-.36,1.85-.81,2.82-1.3,9.34-4.22,19.87-9.03,25.97-9.94,1.06-.24,1.51-.97,1.02-1.94-.78-.57-2.5-1.38-3.82-1.48ZM1859.96,522.49c1.89.89-.42,5.58-4.86,9.9-1.27-3.11,1.25-11.59,4.86-9.9Z"/>
          <path class="cls-2" d="M2197.01,393.84c-7.36,1.37-14.07,12.08-15.77,17.27l-1.65-4.98c-.27-.76-1.49-1.75-2.85-1.97-1.49-.18-2.76.28-2.44,1.16.53,2.19,1.01,4.13,1.45,5.88-3.31,7.49-8.96,19.41-20.78,23.67-4.43,1.6-10.31-.85-11.56-3.11,4.43-1.6,8.77-6.6,8.95-11.23.07-4.17-4.96-6.64-8.89-5.22-5.44,2.22-7.39,8.06-6.33,13.25-1.08.32-2.27.72-3.57,1.19-4.68,1.69-10.61,4.26-15.31,6.67-7.08-7.73-16.38-10.95-25.58-11.48,10.63-8.55,14.69-21.45,10.88-31.22-3.99-10.28-16.56-18.17-36.89-15.12-6.95.94-13.96,2.89-20.31,5.48-1.55-5.87-2.65-10.9-3.3-14.67-.23-.63-1.86-1.19-3.16-.86-2.16.35-1.77.64-1.71,1.19.47,3.69,1.85,9.48,3.59,16.28l-2.69,1.26c-19.45,9.45-34.21,27.92-37.19,45.42-1.15,6.7-.13,13.48,1.97,19.3s5.23,10.54,8.88,13.51c10.37,8.54,21.52,7.38,28.98,4.68,4.93-1.78,8.31-4.29,8.81-4.89.95-1.34-.59-1.65-1.47-.9-1.59,1.14-3.64,2.17-5.54,2.86-16.98,6.41-30.4-3.46-35.23-16.86-1.83-5.06-2.43-10.7-1.55-16.16,3.02-17.38,17.28-35.24,36.11-44.04,6.44,23.39,12.96,46.19,20.8,67.93,1.51,4.17,3.01,8.34,4.64,12.47-6.26,6.4-11.39,13.97-11.97,21.47,0,1.57.16,2.8.57,3.94,3.51,9.73,23.06,6.11,29.73,3.99,7.13-2.43,14.17-6.26,19.67-10.81,13.84-11.14,22.55-28.57,16.71-44.75-.55-1.52-1.22-2.99-2.02-4.42l.21-.22c5.07-2.78,10.78-5.5,16.94-8.32.42.86.9,1.68,1.47,2.39,5.36,6.92,15.46,4.85,22.79,1.78,7.69-3.29,13.17-11.01,14.84-18.8,1.86,6.74,2.76,8.54,3.41,9.21,1.19,1.71,5.95,1.85,5.24.25-.82-3.85-1.09-4.61-1.08-5.75-.12-9.82,7.59-21.32,13.96-23.47l.24,1.06c.24,1.06,2.28,1.18,3.32-1.48.52-1.33-2.21-3.35-5.3-2.8ZM2047.35,387.99c1.6-.72,3.12-1.27,4.76-1.86,4.55-1.64,9.11-2.86,13.64-3.78,18.58-3.14,30.43,4.73,33.49,13.63,3.48,10.03-4.39,23.87-12.61,28.41-4.07.18-7.67.91-10.58,1.96-3.79,1.37-6.68,3.27-8.29,5.14-.75.7-1.46,1.1-.35,2.99,1.57,1.58,7.69-.06,12.53-2.1,3.24-1.31,5.98-2.44,8.53-4.08,9.26-.48,19.79,2.57,26.18,9.99-9.69,5.21-23.45,12.61-34.37,21.55-2.75,2.28-5.75,4.64-8.62,7.39-8.65-25.16-17.48-55.56-24.31-79.23ZM2102.49,486.53c-5.92,4.57-12.89,8.23-19.43,10.3-6.24,2.11-22.58,6.72-22.69-3.1,1.03-6.66,5.16-13.01,10.09-18.36,1.66,3.4,3.38,6.21,4.95,7.79.74.87,2.47,2.11,3.91,1.73.76-.27.87-.74.52-1.33-2.14-2.37-4.2-6.49-6.28-11.45,3.57-3.57,7.57-6.74,10.86-9.49,8.79-7.31,19.23-13.22,32.82-20.7,8.67,18.87-3,35.23-14.76,44.62ZM2147.05,418.87c1.83.86-.3,5.29-4.47,9.49-.1-.14-.24-.28-.51-.41-.03-.02-.07-.02-.1-.03-.63-3.56,1.76-10.61,5.08-9.05Z"/>
          <path class="cls-2" d="M2279.24,355.3c1.37.22,2.88-.33,3.08-.97.15-.77.16-3.91.18-4.64.11-.89-.21-1.78-.4-2.28.02-.72-1.35-1.37-3.13-1.15-1.45-.05-2.75.7-2.47,1.46l.43,1.99c-.03.72,0,3.57-.11,4.04-.45.73.72,1.6,2.42,1.56Z"/>
          <path class="cls-2" d="M2371.92,330.7c-7.36,1.37-14.07,12.08-15.77,17.27l-1.65-4.98c-.27-.76-1.49-1.75-2.85-1.97-1.49-.18-2.76.28-2.44,1.16.53,2.19,1.01,4.14,1.45,5.89-3.31,7.49-8.96,19.4-20.77,23.66-4.43,1.6-10.31-.85-11.56-3.11,4.43-1.6,8.77-6.6,8.95-11.23.07-4.17-4.96-6.64-8.89-5.22-4.43,1.81-6.54,6.03-6.6,10.34-3.71,6.44-11.82,17.74-18.53,20.16-1.39.5-2.79.58-4.08.19-1.39-.54-2.82-5.5-3.7-10.02-.06-.71-.16-1.27-.3-1.62-.5-2.92-.71-5.38-.47-5.89-.1-.68-1.23-1.41-2.8-1.42-1.66.17-2.87.75-2.77,1.43-.61,2.65.04,6.84,1.46,10.76.15.41.31.81.47,1.21-4.54,5.76-12.09,11.7-16.89,13.43-1.39.5-2.87.75-4.37.58-2.21-3.35-2.47-7.25-3.95-10.15-1.1-1.46-3.54-2.29-5.5-2.16-8.03.33-15.12,14.32-17.44,20.16l-4.06-11.25c-3.68-10.68-7.19-21.02-10.36-31.3,6.08-2.74,12.77-5.61,20.35-8.34,7.58-2.74,14.8-4.91,20.9-5.83,1.06-.24,1.51-.97,1.02-1.94-.78-.57-2.5-1.38-3.82-1.48-4.92.63-11.62,2.62-18.83,5.22-7.51,2.71-14.27,5.63-20.79,8.55-1.55-5.19-3.04-10.38-4.34-15.59-.68-1.9-6.16-1.64-5.52.13,1.76,5.87,3.55,11.66,5.38,17.46-2.69,1.22-5.36,2.42-8.02,3.61-1.22.58-2.44,1.17-3.57,1.58-3.05-10.04-5.85-20.18-7.25-26.82-1.29-2.39-6.5-1.37-5.64.61,2.32,8.02,5.3,18.24,8.35,28.28-15.09,6.88-16.56,8.55-24.94,13.44-1.97,1.28,1.87,3.61,4.14,2.36,9.47-5.42,11.92-7.16,22.09-11.83,2.4,7.85,4.84,15.39,6.86,21.38,1.65,4.97,3.99,11.85,6.64,19.18,6.11,16.94,9.83,25.64,12.81,29.56,1.84,2.34,6.72,3.57,5.29.81-3.79-5.35-4.9-6.84-9.55-19.74-4.15-11.51-8.06-23.53-10.86-31.66l-6.78-21.55c1.01-.36,1.85-.81,2.82-1.3,2.8-1.27,5.74-2.64,8.83-4.06,2.95,9.23,6.08,18.56,9.64,28.43l6.48,17.95c.87,2.4,1.41,3.92,1.63,4.13,1.24,1.84,5.75,2.07,4.94.22-1.59-6,6.84-24.19,14.18-26.41.32.89.62,2.49,1.25,4.26.96,2.65,2.77,5.71,6.46,6.81,3.59.85,6.6.47,9.38-.53,6.12-2.21,12.03-7.45,15.11-12.12,1.21,1.93,2.59,3.47,4.03,4.21,3.36,1.79,7.05,1.31,10.16.05,6.48-2.66,12.56-11.37,15.51-17.75.45,1.03,1.02,2,1.68,2.84,5.36,6.92,15.46,4.85,22.79,1.78,7.69-3.29,13.16-11,14.84-18.79,1.86,6.74,2.76,8.53,3.41,9.2,1.19,1.71,5.95,1.85,5.24.25-.82-3.85-1.09-4.61-1.08-5.75-.12-9.82,7.59-21.32,13.96-23.47l.24,1.06c.24,1.06,2.28,1.18,3.32-1.48.52-1.33-2.21-3.35-5.3-2.8ZM2321.96,355.74c1.89.89-.42,5.58-4.86,9.9-1.27-3.11,1.25-11.59,4.86-9.9Z"/>
        </g>
        <g>
          <path class="cls-2" d="M1844.68,620.18c-6.16,3.23-18.54,12.29-15.1,18.65.37.71.84,1.25,1.36,1.72-3.61,6.48-10.86,14.43-16.87,15.35-2.51.19-4.07-2.12-4.72-4.32-.62-2.5-.3-5.2-.35-7.33.34-1.84-4.99-3.08-5.25-1.4l-1.11,3.7-.13.05c-3.68-.25-7.51.28-11.07,1.56-4.45,1.61-8.36,4.3-10.96,7.83-2.4,3.3-2.79,6.6-1.78,9.39.96,2.67,3.1,4.62,6.33,5.6,1.72.38,3.38.21,5.03-.38,6.73-2.43,12.78-11.93,15.2-16.38,3.3,3.97,7.35,5.24,11.91,4.74,5.79-.66,13.09-7.88,15.12-12.2.83-1.76,1.4-3.28,1.77-4.57,1.66.46,3.53.65,5.4.98,3.04.48,8.74,1.15,12.51,1.65-3.03,1.96-7.88,4.42-11.95,5.89-1.65.6-3.1.97-4.33,1.13-3.02.38-.74,3.13,1.06,3.34,2.18.07,5.37-.65,8.54-1.79,3.3-1.19,6.47-2.76,8.53-4.22,2.98-2.08,4.11-6.5.45-7.91-3.27-1.11-7.77-1.64-13.56-2.56-3.09-.61-6.47-.82-6.35-2.87.21-3.8,10.99-10.14,15.09-13.48.56-1.64-2.85-3.13-4.8-2.14ZM1786.32,667.35c-1.95.56-3.22-.56-3.39-2.22-.71-6.34,6.81-11.78,13.16-14.07,1.91-.69,3.78-1.07,5.18-1.16-2.75,6.3-9.13,14.48-14.96,17.45Z"/>
          <path class="cls-2" d="M1858.3,595.19c9.38-4.24,23.79-10.88,37.38-15.79,7.62-2.75,14.87-4.94,21-5.86,1.06-.24,1.51-.98,1.02-1.95-.78-.58-2.51-1.39-3.84-1.48-4.94.64-11.68,2.64-18.93,5.25-12.45,4.49-26.52,10.86-37.05,15.52-1.22.58-2.45,1.17-3.59,1.59-3.06-10.08-4.58-16.67-5.98-23.34-1.3-2.4-6.53-1.37-5.67.61,2.33,8.05,4.02,14.72,7.08,24.8-15.17,6.91-15.85,6.77-24.27,11.67-1.98,1.29,1.88,3.62,4.16,2.37,9.52-5.45,11.18-5.37,21.41-10.06,2.09,6.84,11.91,39.71,17.66,49.69.87,1.51,3.88,3.38,4.71,3.53,2.27.4,4.39-.03,3.34-2.06-.35-.63-2.21-2.14-3.57-3.38-.44-.4-2.06-2.37-2.58-3.55-5.79-13.11-15.11-46.25-15.11-46.25,1.02-.37,1.86-.81,2.83-1.31Z"/>
          <path class="cls-2" d="M1896.85,605.52c-7.4,1.38-14.15,12.13-15.86,17.34l-1.66-5c-.27-.76-1.5-1.75-2.87-1.97-1.5-.18-2.77.28-2.45,1.17,3.99,16.63,5.44,19.84,6.36,20.8,1.19,1.72,5.98,1.86,5.26.25-.82-3.86-1.09-4.62-1.08-5.78-.11-9.86,7.64-21.4,14.04-23.57l.24,1.06c.24,1.06,2.29,1.18,3.34-1.49.52-1.34-2.22-3.36-5.32-2.81Z"/>
          <path class="cls-2" d="M1940.88,597.08c-1.14.41-5.91,2.71-11.89,4.86-2.92,1.05-6.27,2.12-9.58,2.89-2.73-1.6-6.12-2.24-9.73-1.51-2.59.79-2.97,2.51-2.84,4.47-.25.09-.33.26-.59.36-2.56,2.07-3.66,9.35-.85,14.36,1.92,3.33,6.51,6.11,11.31,4.67,5.98-1.73,10.05-6.78,8.9-13.54-.31-2.04-1.12-3.9-2.22-5.36,7.89-2.42,15.73-6.54,18.16-8.56,2.68-2.12,2.98-4.08-.66-2.63ZM1915.94,623.86c-2.37,1-4.27.11-6.23-3.34-1.92-3.33-1.11-8.64.09-10.5l.16-.34c2.19.5,4.88.39,7.99-.16,3.68,3.83,3.5,12.07-2,14.35Z"/>
          <path class="cls-2" d="M1972.88,578.64c-5.68,1.77-14.41,4.63-19.62,6.51-1.4.5-2.62,1.09-3.51,1.41-1.02.37-.48,1.47.61,2.08,1.3.82,2.63.91,3.64.55l22.54-7.56c1.02-.37,1.42-1.23.25-2.1-.87-.83-2.76-1.3-3.91-.88Z"/>
          <path class="cls-2" d="M2047.21,542.35c1.37.22,2.9-.33,3.09-.97.15-.77.16-3.93.19-4.66.11-.9-.21-1.79-.4-2.29.03-.72-1.36-1.38-3.15-1.16-1.45-.05-2.76.71-2.48,1.47l.43,1.99c-.03.72,0,3.58-.12,4.06-.45.74.72,1.61,2.43,1.56Z"/>
          <path class="cls-2" d="M2214.9,500.18c-2.68,5.7-7.88,15.18-16.51,18.72-3.7.91-5.69-1.82-7.29-4.68-.82-2.28-1.43-4.36-1.62-5.29-.43-1.99-5.7-2.67-5.45-.76.63,4.93-3.03,21.46-9.52,19.78-1.72-.39-2.96-2.23-3.78-4.51-1.19-3.3-1.37-7.39,0-9.18.5-.61.47-1.46-.91-2.11-1.43-.78-3.06-.91-3.98-.28-1.01.79-1.36,2.21-1.53,3.71-.06.33-.07.67-.09,1.01-.41.06-.89.18-1.53.44-1.14.41-5.92,2.71-11.89,4.86-2.92,1.05-6.27,2.12-9.59,2.89-2.73-1.6-6.12-2.24-9.73-1.51-2.59.79-2.97,2.5-2.84,4.47-.25.09-.34.26-.59.35-1,.81-1.76,2.42-2.17,4.37-3.54,5.59-10.66,13.56-15.98,16.52l.16-2.35c-.04-1.71-.3-3.62-.99-5.52-1.05-2.92-3.04-5.64-6.58-7.09l-.82-.28c-1.38-.65-3.14-.73-4.33-.45-5.96,1-10.29,14.47-10.57,20.45-2.97-6.24-6.03-14.31-9.01-22.56-6-16.62-7.99-23.51-8.07-28.5.11-.9-1.11-1.89-2.41-2.29-1.54-.3-2.81.16-2.97.93,0,5.17,1.22,10.32,6.67,25.42l1.46,4.06c2.45,6.78,5.01,13.35,7.3,19.04-3.8,6.51-11.82,17.59-18.48,19.99-1.4.5-2.81.58-4.1.19-1.4-.54-2.83-5.53-3.72-10.08-.06-.7-.16-1.25-.29-1.6-.5-2.94-.72-5.41-.47-5.92-.1-.68-1.23-1.42-2.81-1.42-1.66.17-2.89.76-2.78,1.44-.62,2.66.04,6.87,1.46,10.8.15.41.31.81.47,1.21-4.56,5.79-12.15,11.75-16.98,13.5-1.4.5-2.88.76-4.39.58-2.22-3.36-2.48-7.28-3.96-10.19-1.1-1.46-3.56-2.3-5.52-2.17-8.06.33-15.2,14.38-17.54,20.24l-4.08-11.29c-6.02-17.48-11.72-34.06-15.93-50.9-.69-1.9-6.19-1.64-5.55.14,4.97,16.56,9.97,32.4,16.29,49.91l6.5,18.02c.87,2.41,1.42,3.93,1.64,4.14,1.24,1.85,5.78,2.08,4.96.22-1.6-6.02,6.88-24.29,14.27-26.52.32.89.62,2.5,1.26,4.28.96,2.66,2.79,5.73,6.49,6.84,3.61.85,6.63.47,9.43-.54,6.15-2.22,12.1-7.49,15.19-12.17,1.21,1.93,2.6,3.49,4.05,4.22,3.38,1.79,7.08,1.32,10.21.04,6.89-2.83,13.33-12.44,16.06-18.91l3.73,7.32c1.11,1.89,1.96,3.45,2.79,4.16.05.13.14.38.65.62.05.13,1.13.74,2.25,1.06,1.5.17,2-.44,2.12-.48.21-.22.24-.52.37-.56-.01-.42.01-1.15-.43-2l-.52-3.83-.08-1.41.3.04c3.48.89,10.99-1.39,12.88-2.5l.46-.31,1.02-.37c9.21-3.44,15.73-9.57,19.09-16.13.27,1.03.61,2.03,1.13,2.95,1.92,3.33,6.51,6.11,11.3,4.67,5.98-1.73,10.05-6.78,8.9-13.54-.3-2.04-1.12-3.9-2.22-5.36,7.89-2.42,15.73-6.54,18.16-8.56.35-.28.65-.55.92-.81.14,1.1.43,2.19.79,3.21.59,1.65,1.44,3.21,2.5,4.55,2.96,3.81,8.47,5.55,12.66,4.04,5.21-1.88,7.29-7.65,8.5-12.25,3.29,3.55,8.33,5.17,13.28,3.38,8.95-2.66,12.96-11.85,14.08-16.7.65-2.96-.59-6.81-1.19-4.88ZM2096.51,555.25c-1.27.46-2.63.66-4.09.61l-.3-.03c2.66-10.14,4.13-16.41,7.95-19.36l.25-.09.57.37c1.04.49,1.88,1.62,2.52,3.39,2.15,5.97-1.05,13-6.9,15.11ZM2137.75,543.81c-2.37,1-4.27.11-6.23-3.34-1.92-3.33-1.11-8.64.09-10.5l.16-.34c2.19.5,4.88.39,7.98-.16,3.68,3.83,3.5,12.07-2,14.35Z"/>
          <path class="cls-2" d="M2225.41,508.29c-.99,1.65-.68,3.69.62,4.51,1.3.82,3.08.18,4.07-1.47.98-1.65.68-3.69-.62-4.51-1.3-.82-3.08-.18-4.07,1.47Z"/>
          <path class="cls-2" d="M2322.73,461.27c-2.68,5.7-7.88,15.18-16.51,18.72-3.7.91-5.69-1.82-7.29-4.68-.82-2.28-1.43-4.36-1.62-5.3-.43-1.99-5.7-2.67-5.45-.76.63,4.93-3.03,21.46-9.52,19.78-1.72-.39-2.96-2.23-3.78-4.51-1.19-3.3-1.37-7.39,0-9.18.5-.61.47-1.46-.91-2.11-1.43-.78-3.06-.91-3.98-.28-1.01.79-1.36,2.21-1.53,3.71-.1.56-.14,1.13-.14,1.7-.33-.05-.8.46-1.43,1.88-3.32,7.51-9.01,19.6-20.95,23.91-4.45,1.61-10.36-.85-11.61-3.12,4.45-1.61,8.81-6.62,9-11.28.07-4.19-4.99-6.66-8.93-5.24-6.13,2.5-7.88,9.59-5.87,15.17.46,1.27,1.17,2.45,1.97,3.45,5.38,6.95,15.54,4.86,22.9,1.78,8.58-3.67,14.47-12.82,15.37-21.47.06-.48.1-.93.12-1.38.1.36.2.72.33,1.07.59,1.65,1.44,3.21,2.5,4.55,2.95,3.81,8.47,5.55,12.66,4.04,5.21-1.88,7.29-7.65,8.5-12.25,3.29,3.55,8.33,5.17,13.28,3.38,8.95-2.66,12.96-11.85,14.08-16.7.65-2.96-.59-6.81-1.19-4.88ZM2241.66,488.08c1.9.89-.42,5.6-4.89,9.94-1.27-3.12,1.26-11.64,4.89-9.94Z"/>
        </g>
      </g>
      <g>
        <path class="cls-2" d="M1354.85,2639.4c-21.34-8.46-50.42-8.97-72.43-14.45-68.5-17.04-113.52-40.61-186.95-27.63-4.25.75-15.4,1.89-14.75,8.01h84.81c23.51,0,85.7,24.64,113.67,31.12,26.87,6.22,55.24,11.26,82.83,10.23.06-4.11-3.8-5.94-7.18-7.28Z"/>
        <path class="cls-2" d="M1064.17,2605.34l-146.55,8.57c-51.92,16.8-102.7,27.8-157.53,28.65-4.96.08-15.44-3.03-14.44,4.12,19.87,9.42,37.1,1.45,55.72-.09,67.2-5.54,130.71-22.02,198.97-28.55,18.34-1.76,39.39-3.71,57.66-4.45,6.84-.28,11.59-3.63,6.16-8.24Z"/>
        <path class="cls-2" d="M505.75,2255.82c16.66-12.34,64.22-23.46,86.78-33.19,52.22-22.52,104.63-56.25,151.05-88.89l2.14,43.51c-1.53,16-10.57,30.95-8.34,47.48l20.65-16.54c-6,39.37,17.8,70.43,27.06,107.41,12.69,50.67-5.31,67.23-22.87,109.83-4.25,10.32,13.51,1.95,16.44-.12,8.56-6.05,28.57-67.16,28.57-78.51,0-45.31-43.79-84.7-41.11-124.14.7-10.28,6.74-20.17,4.33-31.01l-16.52,8.26c-3.55-11.83,3.68-25.71,3.68-35.16,0-12.88-7.5-32.16-3.73-47.57-67.33,49.89-142.14,92.11-223.37,115.81,17.02-19,34.61-38.95,53.68-55.93,7.6-6.77,37.07-32.28,43.57-35.04,1.85-.78,6.81-1.05,6.16,2.04l-33.07,45.53c3.79,5.64,15.8-3.35,18.73-6.09,14.37-13.41,17.19-36.78,29.08-49.52,15.96-17.1,44.88-24.44,59.73-43.7.64-3.12-4.07-2.69-6.14-2.02-12.38,4.01-63.63,36.76-78.01,46.11-75.33,49-123.8,123.69-186.67,185.65-15.42,15.19-37.81,30.51-53.9,45.39-23.53,21.76-72.56,79.74-104.08,81.67-9,.55-23.35-6.36-34.52-3.1,4.44-14.26,33.13-20.7,39.36-28.88,3.99-5.24,3.83-9.89-4.15-8.3-12.47,8.79-88.11,55.18-97.26,45.47,1.63-83.65,51.91-147.83,113.75-198.58,23.71-19.46,50.09-35.34,74.45-53.8,14.95-11.33,29.94-29.35,43.64-39.1,31.07-22.1,80.43-40.82,115.35-62.53,98.24-61.08,217.24-182.17,289.86-272.76,20.34-25.37,35.13-55.04,57.91-78.62l-2.04-6.17c-21.78,22.34-39.5,48.88-60,72.38-82.81,94.94-184.26,204.62-289.87,272.75-100.41,64.78-206.68,121.88-290.47,208.03-3.09,3.18-10.41,4.38-13.3,9.45-6.08-3.06.87-9.98,2.91-13.64,35.26-63.15,66.12-128.06,103.22-190.5,6.86-11.54,19.72-23.38,25.94-36.11,5.55-11.36,7.08-26.85,12.92-36.73,11.15-18.88,47.72-51.55,63.92-72.6,16.23-21.08,31.42-53.7,45.25-70.58,6.68-8.15,34.38-13.08,45.64-20.55,46.18-30.66,72.51-105.8,97.24-155.11,3.76-7.49,15.07-16.98,8.4-24.7-31.49,31.54-46.35,75.34-69.01,113.01-5.51,9.16-28.35,46.79-33.38,51.41-12.21,11.21-56.2,21.01-68.66,34.79-.67.74,2.25,5.13,1.31,7.81-4.18,11.97-91.18,126.18-103.28,136.49-3.69,3.14-8.95,3.3-10.19,4.31-.59.48,5.43,9.37,3.49,13.31l-76.07,122.87c-9.44-12.77-.13-34.64,4.1-49.68,21.4-76.18,66.19-152.8,79.31-228.03,6.66-38.19,45.15-74.95,65.22-108.53,8.21-13.74,16.15-26.93,23.74-41.25,2.05-3.87,15.79-17.75,1.36-15.19-12.89,2.28-41.16,38.05-57.48,42.7l43.8-68.78c27.67-53.58,44.74-78.35,61.87-103.6,8.38-12.36,19.93-30.05,23.45-42.74.84-3.01,2.83-9.15-1.27-9.55-10.36,8.52-17.05,18.4-24.52,29.26-44.52,64.72-78.44,139.78-120.56,206.26l-1.78,12.68c17.39,3.82,22.18-9.42,33.07-18.61,3.28-2.77,8.26-10.91,12.41-4.14l-69.76,104.31c-1.9,9.35,4.26,15.14,1.92,26.08-8.41,39.48-44.43,108.76-59.43,151.89-8.7,25.03-33.28,87.1-29.01,109.93,2.56,13.72,13.12,9.05,11.15,16.85l-60,122.54c-3.21,38.57-30.25,76.95-41.16,115.68-2.56,9.08-7.83,30.04-4.07,37.4,13.31,26.03,46.67,2.89,66.5.21,22.72-3.07,42.22,5.79,61.96,4.1,33.2-2.84,111.47-85.09,136.5-111.77,19.23-20.49,58.7-75.81,76.48-88.99Z"/>
        <path class="cls-2" d="M486.97,1550.31c21.96-22.04,50.3-38.53,70.53-57.71,14.41-13.66,23.43-37.58,39.11-51.91,18.46-16.88,36.85-16.75,52-26.6,3.02-1.96,41.06-44.6,45.06-50.09,2.46-3.38,10.17-13.02,4.4-16.29-11.5,10.05-21.51,23.45-33.12,33.07-31.66,26.25-63.41,36.96-93.06,68.28-3.83,4.04-5.91,10.11-10.25,14.58-24.45,25.16-50.12,49.19-74.58,74.35-3.12.64-2.69-4.06-2.02-6.14,10.65-33.16,67.69-121.81,92.85-147.1,9.21-9.26,24.22-15.86,33.04-24.87,5.26-5.37,20.84-28.34,22.95-34.97.67-2.09,1.11-6.78-2.02-6.14-31.1,22.48-52,54-80.66,78.59,19.78-67.87,61.46-123.3,113.75-169.61,24.74-21.91,66.94-54.94,95.81-69.67,16.97-8.66,40.76-12.46,56.71-21.89,5.76-3.4,19.64-19.99,21.22-20.11,7.84-.54,3.07,9.79,3.03,11.18-.3,9.81.46,41.87-2.86,46.86-2.05,3.07-37.4,22.07-45.65,28.81-13.74,11.2-25.76,27.51-39.21,39.39-27.06,23.9-56.16,45.75-80.78,72.28-4.86-5.34,4.12-16.89,6.95-22,20.25-36.59,50.85-60.44,68.89-96.58,1.88-3.77,8.76-10.83,2.78-13.77-39.89,49.8-98.52,97.12-101.34,165.47,19.98-14.86,35.38-35.13,53.65-51.82,21.04-19.21,46.49-41.94,68.37-59.87,8.3-6.8,62.31-48.39,66.62-49.37,5.57-1.27,6.85,3,9.35,6.48,8.97,12.48,16.67,29.42,26,42.22l50.42,1.31c5.87,7.57,39.52,44.28,48.22,36.57,7.66-6.79-5.92-8.71-8.27-10.13-18.19-11.01-24.34-32.99-32.98-37.52-11.42-5.99-39.1,3.97-54.04.48-6.42-16.92-20.67-32.95-23.77-50.95-5.86-34.07,14.33-107.65,24.96-142.84,4.02-13.31,14.78-28.77,15.55-42.38.15-2.64,1.2-6.82-2.11-6.23-7.25,8.02-19.83,28.81-29,33.07-5.15,2.39-7.65-1.19-6.14-6.14,2.39-7.79,11.94-19.81,15.58-29.94,7.26-20.2,9.71-41.95,16.29-62.31,10.84-33.51,26.88-64.04,50.81-89.84-3.25-5.79-10.74-.78-14.67,1.87-7.92,5.35-17.8,24.08-28.76,33.29-5.25,4.42-12.16,6.8-16.55,12.41-3.12.64-2.69-4.07-2.02-6.14,1.84-5.67,20.69-36.74,25.53-44.81,24.81-41.4,72.06-106.19,113.66-130.42,23.86-13.89,70.51-9.03,101.73-14.11,3.99-.65,16.54-1.66,15.51-7.2-26.8-11.51-54.22,1.97-80.76.06-52.83-3.81-64.61-19.98-103.94-44.97-12.48-7.92-25.14-8.15-35.86-13.11-3.59-1.66-2.5-6.42-3.56-7.21-4.5-3.35-17.56.14-24.08-.97,7.29,12.88,25.87,12.99,38.67,21.3,33.52,21.74,42.36,35.43,84.38,52.19,3.89,1.55,6.2-.54,5.18,5.07-28.57,13.19-58.14,39.92-78.57,64.16-27.03,32.07-42.09,71.5-61.29,108.32-5.37,10.3-21.61,23.39-2.93,26.22,4.53.69,12.87-2.48,14.55,1.95-20.87,30.5-20.08,72.89-30.89,105.63-7.67,23.23-36.7,47.14,14.34,32.98l-21.53,67.39c-3.65,7.05-11.78,14.46-18.38,18.85-31.65,21.11-74.95,34.29-108.78,56.7-72.84,48.26-128.1,111.65-165.13,190.65-23.35,49.82-48.32,98.09-71.69,147.56-4.61,9.76-28.41,63.81-24.01,69.05,15.17-3.18,18.16-16.3,26.76-24.93Z"/>
        <path class="cls-2" d="M915.26,611.31l49.62,4.15-16.53-16.52c19.92-.58,42.05,5.13,61.16,11.21,7.49,2.39,44.41,19.49,46.38,17.72,5.3-4.77-6.47-10.9-9.45-13.28-9.85-7.85-22.05-13.44-32-21.78-4.18-3.5-28.96-26.67-24.71-31.12,38.64,19.09,80.68,29.53,121.97,41.41,6.75-15.36-9.51-26.15-19.97-33.81-4.08-2.99-13.12-8.27-.72-7.57,33.44,16.05,59.34,37.71,84.85,64.09,8.49,8.78,12.42,21.71,26.91,26.87l-13.52-40.28,3.13-13.48c3.13,18.23,13.46,33.9,23.07,49.33,19.78,31.78,73.2,109.38,107.32,120.22,2.09.67,6.78,1.11,6.14-2.02-15.69-11.99-28.88-25.98-41.35-41.38-12.87-15.88-35.7-45.19-45.6-61.96-3-5.09-5.64-7.52-4.04-14.56,27.82,2.92,55.5,4.26,82.82,10.24,47.29,10.35,94.04,34.27,140.41,45.75,42.53,10.53,61.02,3.19,95.28-22.91-.25,20.97-23.71,24.41-35.33,37.05-6.89,7.5-9.6,17.54-16.01,25.35l-18.94,65.84c14.6-11.1,17.13-34.93,25.32-51.19,17.96-35.68,43.69-52.66,81.99-62.81,10.05-2.66,35.23-9.41,37.46,2.28-13.82-1.67-21.23,14.77-28.92,18.68-15.8,8.04-46.88-7.55-57.95,14.42,10.93-.92,19.48-4.37,31.03-4.36,25.19.03,53.85,11.9,78.36,4.03l2.34,8.62c9.26-7.44,30.01-20.4,22.74-33.08-17.62,19.12-40.19,17.5-64.13,16.52,4.25-15.83,19.36-20.57,31.85-28.12,3.12-1.89,12.32-2.83,5.37-9.08-.83-.75-17.01.35-22.44-.29-5.53-.65-10.69-4.08-16.84-4.09-7.78-.02-40.92,10.95-43.44,8.5l4.12-28.94c-31.63,8.92-53.11,35.39-88.91,33.28-62.23-12.61-126.89-49.16-190.22-54.07-18.32-1.42-50.48,3.87-65.62-.57-8.26-2.42-24.75-36.59-28.41-46.06-2.78-7.2-6.46-30.44-7.44-31.89-5.16-7.6-10.71,6.95-11.42,11.24-2.12,12.76-.55,25.64-.99,38.42-29.58-27.34-71.7-63.37-113.57-66.37-4.91-.35-15.59-1.48-18.78,2.23,12.02,13.92,32.49,18.37,41.36,35.15-18.34,2.93-102.53-38.71-109.57-37.23-2.88.6-6.41,6.52-6.36,10.29.19,13.41,30.35,33.91,24.89,39.38-26.48-9-56.56-14.3-84.48-12.11l-27.18,7.94c9.78,3.43,24.52,5.51,33.12,10.33,12.35,6.93-7.25,5-4.17,10.36Z"/>
        <path class="cls-2" d="M1198.29,1951.55c-4.15,4.68-11.05,11.52-16.01,16.77-5.59,5.91-39.11,40.52-41.98,41.14-6.44,1.4-10.08-10.66-18.21-8.11,18.08,21.08,11.35,12.8-4.25,26.75-10.83,9.68-20.16,21.3-30.92,31.14-5.91,5.41-43.38,27.83-35.14,37.24,9.33-5.84,14.02-7.97,24.8-4.15,1.47-1.33-6.22-7.27-2.45-12.45,3.53-4.85,26.65-18.7,33.48-24.77,7.34-6.52,27.89-30.86,33.8-32.59,12.17-3.55,35.71,14.3,51,11.89.97-5.86-7.2-5.8-11.48-7.08-11.33-3.39-23.92-4.78-34-11.5l51.69-47.16c7.66,6.98,15.7,13.31,26.89,11.96l-24.77-18.6c27.54-24.89,50.32-55.84,66.2-88.96,12.74,6.58,26.36,13.59,41.31,12.4-.38-6.89-12.33-4.02-19.59-7.27-5.18-2.32-9.64-6.95-13.19-11.32,11.1-8.3,24.34-39.48,32.65-45.7,7.18-5.38,14.2,7.63,23.67,9.75,7.23,1.61,14.69.74,21.96.76-.3-6.96-13.67-3.9-20.85-6.01-2.81-.82-16.44-7.14-16.59-8.71-1.08-11.28,33.95-61.22,44.15-63.22,6.79-1.33,35.42,8,47.07,3.47l-41.37-8.26c6.47-27.41,16.16-53.64,29.16-78.58,26.07,12.53,50.39,14.66,78.4,8.24.98-7.17-9.49-4.04-14.45-4.12-20.48-.32-39.72-1.45-60.02-4.14-8.31-7.37,34.88-60.87,33.3-74.28,25.52,2.42,43.93,12,70.13,3.94l-51.63-8.32c-4.09-.4-9.16-2.41-10.24-6.53-2.52-9.58,18.18-53.58,20.21-70.23,1.4-11.46-.61-23.17.56-34.61l20.42-4.42-20.66.05-2.08-12.46c-4.39,0,2.34,16.33-10.34,12.46-1.75,7.06,5.99,2.51,7.55,4.53,5.27,6.8-8.86,48.35-12.64,58.63-6.51,17.72-17.3,34.12-22.01,48.73-7.83,24.26-21.35,49.81-36.96,69.78l-31.09-16.2c4.32,11.44,29.24,15.24,29.1,26.75-12.28,23.14-14.67,50.98-33.2,70.69-7.72,4.61-26.86-21.28-28.98-18.87-2.69,14.5,26.68,21.32,24.55,30.6-.63,2.76-28.62,41.72-32.71,46.15-3.75,4.06-10.76,5.27-11.77,6.76-1.89,2.83-.35,10.19-2.95,15.58-2.07,4.3-24.67,38.29-26.6,39.69-12.27,8.86-17.05-11.71-29.14-10.52-1.83,1.65,14.32,18.68,20.68,16.57l-.05,6.1c-22.78,25.66-41.68,54.92-64.41,80.59Z"/>
        <path class="cls-2" d="M1055.9,929.84c25.6,9.62,48.44,27.43,75.3,34.36,52.54,13.57,79.47-13.86,121.2-13.86,10.71,0,35.92,7.26,47.62,10.52,19.51,5.44,37.9,15.33,57.87,18.64-26.48-28.87-91.26-47.12-129.4-40.44-14.76,2.59-29.55,13.36-46.72,15.33-53.67,6.15-88.17-11.04-121.72-51.41-86.39-103.95,3.71-219.19,124.1-208.93-1.09-6.57-7.92-7.79-13.24-9.46-20.36-6.38-60.4,4.15-80.62,12.83-45.8,19.66-79.75,60.73-75.76,112.47l-33.08-12.38c14.18,16.1,27.51,32.31,37.22,51.7l-16.51,4.09c27.15,17.17,38.76,45.34,62.02,66.23-5.68,4.2-10.5-.73-8.27,10.3Z"/>
        <path class="cls-2" d="M1061.91,1951.5c-38.68,8.57-77.76,7.69-109.35-18.4,4.65-10.37,14.07-16.62,19.89-25.56,2.21-3.39,8.55-11.12,2.79-13.76-13.82,5.42-22.24,22.06-33.63,28.42-5.83,3.25-17.22,4.37-17.92,4.99-.37.33,3.01,4.95,1.64,7.91-2.57,5.56-23.09,31.08-28.61,37.37-5,5.71-22.13,24.1-27.08,27.07-5.49,3.3-10.72-3.2-16.46-2.34l8.23,10.32-47.52,38.8-43.64-34.81c-1.88-16.98,29.05-28.79,39.59-39.06,18.02-17.56,21-41,55.73-33.22l-16.5-10.32c.09-7.21,48.53-52.33,57.99-58.18,5.46-3.38,10.68,3.25,16.43,2.31,2.32-1.93-7.51-7.41-7.5-10.3,0-1.02,10.59-16.16,11.57-16.89,5.75-4.29,27.91,8.55,37.28,6.51l-22.91-12.22c-11.47-7.54,1.49-24.67,7.11-34.59,9-15.87,21.86-31.33,31.74-46.94,7.11-11.24.95-17.03,21.29-13.81l-7.8-4.39c-2.93-13.95,39.11-74.96,32.62-82.45-6.32-7.3-8.95,5.78-10.53,7.88-4.05,5.42-8.44,11.47-11.9,17.24-8.25,13.75-7.45,29.18-24.39,23.78-5.66-1.8-7.49-9.58-15.22-7.53,2.73,8.41,12.95,11.13,20.58,12.53l-4.12,20.48c-14.01,3.19-20.52-11.45-33-12.32,25.43,25.61,30.8,17.2,11.67,50.94-4.23,7.46-33.01,52.22-36.35,54.72-8.48,6.36-31.29-20.96-33.21-18.81-3.76,11.88,24.85,23.52,24.76,26.89-5.15,3.56-6.85,9.91-10.65,14.33-46.6,54.18-100.84,107.14-154.89,155.19-13.95,12.4-24.99,34.22-45.44,31.14,10.05,15.12-12.55,23.7-20.63,35.16,4.09,5.76,14.14-4.21,17.85-6.97,4.17-3.1,16-15.03,17.23-15.09,5.82-.31,14.56,13.79,22.82,11.69l-16.54-14.45,39.29-35.11c8.99,12.21,29.96,25.42,37.43,37.11,2.47,3.86,2.47,4.53,0,8.39-3.63,5.68-21.15,21.57-27.37,26.55-34.45,27.59-81.87,44.84-115.38,70.78-4.93,3.81-9.81,7.21-8.42,14.32,36.26-20.79,73.95-39.62,108.84-62.82,11.05-7.35,53.75-42.94,59.34-44.17,5.19-1.14,42.55,18.85,55.18,11.82l-45.45-18.59,43.92-38.89c22.01,8.73,42.6,22.46,67.72,20.25.97-5.86-7.21-5.81-11.49-7.08-17.63-5.25-34.88-9.56-50.55-19.78,20.17-25.74,44.22-46.46,68.78-67.85,22.97,10.38,44.73,20.89,70.18,24.29l72-8.18-27.08-4.31Z"/>
        <path class="cls-2" d="M1212.08,1601.09c-16.41,2.24-31.96,4.83-48.62,3.09-4.14-3.91,22.52-77.84,22.59-91.17,4.39-6.85,19.16-3.29,27.05-3.99-.56-10.07-22.95-6.63-24.81-8.26l4.13-16.52c-11.66-3.43-7.23,7.27-12.09,10.49-4.83,3.2-11.42,1.76-16.85,1.93.5,8.17,12.8,3.07,12.43,14.21-.25,7.48-20.47,74.84-24.47,82.65-2.38,4.66-8.89,2.02-12.78,2.42-1.64,7.44,6.19,2.6,8.25,4.13,3.5,2.61-5.58,11.59-7.28,15.45-4.6,10.49-25.95,65.76-31.83,66.08-2.67.14-6.78-3.79-10.52-2.93-1.95,1.66,6.74,7.36,7.83,11.08,3.94,13.51-31.83,53.71-32.83,71.51l-24.65-3.98,16.29,14.4c-16.99,34.94-43.38,63.82-61.8,97.26,2.23,2.1,22.63-11.94,23.78-13.43,2.98-3.84,5.76-15.63,11.68-23.49,14.8-19.68,33.43-36.64,39.46-61.88,15.69-.77,31.55-.62,47.3-.68,7.25-.02,13.4,3.16,19.75,3.14,11.06-.03,26.96-5.98,40.04-2.95.98-7.18-9.47-4.02-14.45-4.11-13.76-.27-27.79.91-41.49.1-6.13-.36-11.27-3.27-16.74-3.94-7.55-.93-29.74,3.98-26.53-6.43,5.37-17.45,25.91-39.69,32.86-58.16l41.53-6.05c1.02-7.18-9.77-4.44-14.19-3.85-6.3.84-12.02,5.24-18.88,3.86l-.03-2.08c-.06-8.06,10.87-18.47,14.56-26.81,4.32-9.8,13.5-48.59,18.29-52.05,7.69-5.56,20.12,3.16,30.86,2.27,10.97-.91,23.69-8.8,35.59-8.22.76-7.79-8.83-3.71-13.42-3.08Z"/>
        <path class="cls-2" d="M1086.94,1120.18c-30.13,29.84-59.02,68.99-98.48,87.69-33.6,15.92-44.46,9.97-40.27-27.88,2.39-21.61,20.1-42.97,24.96-63.94-13.99.1-18.91,16.45-26.78,24.91-13.41,14.44-28.28,28.78-43.52,41.27,9.42-39.66,25.05-80.68,51.58-111.8,18.27-21.42,44.72-38.47,53-67.08,1.76-6.08,5.06-12.08-3.26-15.54-1.28-.53-9.7,20.52-12.59,24.62-12.69,17.96-37.79,34.18-51.57,51.85-26.44,33.9-42.15,87.76-41.3,130.36,6.47,7.03,34.32-35.48,41.36-28.93-9.96,14.13-.43,46.83,10.26,57.96,11.58,12.05,44.98-5.94,57.24-13.23,20.49-12.18,74.35-62.44,81.38-84.1.67-2.08,1.1-6.78-2.02-6.14Z"/>
        <path class="cls-2" d="M964.88,2051c-6.55-7.49-8.82,5.68-10.19,8.2-16.36,29.98-30.9,60.07-55.12,84.78l13.58,27.01,26.91,70.29c-64.48-33.94-102.55,43.52-95.11,99.29,17.05-7.96,13.67-33.03,18.44-49.8,7.06-24.78,26.24-61.69,57.29-52.82,3.72,1.06,24.89,14.69,27.25,18.24,9.82,14.81,16.67,47.15,25.77,65.25,5.46,10.86,20.07,26.99,22.64,35.6,1.91,6.41-4.04,12.53-.71,16.79,2.05,2.62,7.85,2.63,9.63,4.98,2.21,2.91.63,8.77,5.11,13.44,3.89,4.05,15.56,9.38,20.7,14.52,2.45-9.02-7.88-11.15-10.22-16.44-6.08-13.76-11.76-27.62-19.49-42.77-24.6-48.19-46.95-101.65-67.47-151.79-6.51-15.91-9.19-33.38-18.08-48.43-2.2-11.57,23.03-37.46,30.57-50.74,3.75-6.62,21.3-42.4,18.51-45.59Z"/>
        <path class="cls-2" d="M518.13,1666.25c53.84-54,126.72-70.87,193.14-102.63,70.06-33.5,92.66-61.49,141.92-118.7.87-7.33,30.04-30.16,24.82-35.15-4.15-3.95-11.69,5.81-14.47,8.26-38.82,34.28-65.84,74.97-109.85,105.27-61.2,42.12-175.82,71.81-221.99,119.31-2.61,2.69-15.81,21.15-13.57,23.64Z"/>
        <path class="cls-2" d="M586.38,1666.26c16.63-14.22,39.33-25.96,55.56-39.58,4.86-4.08,10.06-6.65,8.53-14.21-46.08,28.56-104.53,56.91-133.12,104.73-39.08,65.37-58.65,154.77-139.01,179.7-7.1,2.2-11.01-1.98-9.14,9.28,50.04-.55,73.99-30.89,98.52-69.01,40.34-62.72,59.25-120.12,118.67-170.91Z"/>
        <path class="cls-2" d="M896.27,1521.09c3.07-4.23,17.79-21.31,14.82-24.46-12.98,2.52-15.4,13.48-22.62,20.8-18.42,18.69-51.99,50.41-66.11,70.41-21.46,30.4-35.85,86.3-56.68,121.21-21.81,36.55-54.42,75.96-82.29,108.01l-32.9,18.78c14.65.73,25.42-7.41,36.86-14.82,73.23-47.37,108.25-160.86,154.04-230.69,14.77-22.52,38.22-46.32,54.87-69.24Z"/>
        <path class="cls-2" d="M997.88,1366.22c-8.43,152.26-23.74,215.08-102.57,344.22-4.71,7.72-11.53,17.46-13.14,26.14,51.04-52.97,84.7-115.65,105.52-186.11,9.8-33.18,25.16-93.17,22.79-126.34-1.98-27.71-1.38-44.24-1.29-70.96.03-8.53-4.78-18.47-3.35-28.22l-7.96,41.28Z"/>
        <path class="cls-2" d="M1005.84,1324.94l.4-2.05c-.17.68-.29,1.36-.4,2.05Z"/>
        <path class="cls-2" d="M1022.81,1500.79c5.59,12.61,18.3,16.95,29.22,23.08-6.03,29.74-17.94,58.06-12.65,88.59,7.8-.25,6.67-19.38,14.34-20,1.99-.16,29.86,9.49,38.43,10.66,7.28.99,14.34,1.75,21.67,1.05,1.07-6.08-7.68-5.05-12.43-6.14-12.6-2.88-25.65-4.39-38.17-7.41-3.33-.8-11.69-2.32-11.58-5.34l27.05-80.04c-5.9-22.98,8.09-41.49,14.54-62.39l16.46,4.11c-18.18-17.42,2.78-33.85,13.35-50.91,2.17-3.5,2.68-10.31,3.36-11,3.89-3.96,23.38,10.79,24.64-.09-15.53-2.08-23.36-8.36-20.69-24.84l-6.43,8.57-14.23-4.42,11.97,14.45c-9.92,16.12-25.81,30.95-32.7,47.59l-16.48-8.28c-2.17,8.37,8.17,10.37,7.64,17.84-.31,4.3-8.45,32.63-10.5,39.3-4.01,13.07-15.17,26.09-13.72,42.15-9.72,3.88-27.78-21.23-33.08-16.53Z"/>
        <path class="cls-2" d="M274.01,2222.64c-4.09,5.36-9.01,11.47-8.23,18.64,28.46-22.95,51.69-51.94,78.48-76.64,26.63-24.56,60.49-54.64,89.05-76.43,55.51-42.35,128.47-59.39,171.68-115.82-9.1-2.51-11.3,2.96-16.57,6.16-43.23,26.23-92.01,57.14-133.78,85.47-55.43,37.61-140.42,105.9-180.62,158.61Z"/>
        <path class="cls-2" d="M1295.82,1202.91c-7.44,1.09-6.99,8.54-9.3,13.43-34.01,71.67-71.6,143.24-123.02,203.76,8.1,10.87,16.09,13,29.18,8.51l61.77-41.64c1.49-7.86-2.35-8.05-8.28-4.14-7.17,4.74-14.51,14.1-23.48,17.9l-42.69,21.41c36.06-62,83.03-118.49,110.85-184.92l4.96-34.31Z"/>
        <path class="cls-2" d="M742.27,1644.26c4.56-8.13,10.55-18.39,11.62-27.66-5.53,1.05-8.51,7-11.69,11.04-45.11,57.44-101.8,179.26-159.14,213.18-7.6,4.5-20.32,3.87-23.59,15.69,15.98-3.91,37.52-12.15,51.09-21.29,33.23-22.37,108.87-150.26,131.7-190.98Z"/>
        <path class="cls-2" d="M840.77,1293.93c-2.71-2.45-18.06,6.81-21.99,9.01-18.77,10.53-65.52,39.43-77.32,55.06-18.49,24.48-45.23,82.66-57.28,112.33-2.44,6-6.21,10.71-4.71,18.02,18.99-16.37,28.77-45.57,42.08-67.53,36.94-60.9,55.72-75.02,111.34-116.37,2.2-1.64,15.02-4.06,7.88-10.53Z"/>
        <path class="cls-2" d="M1208.97,1099.51c-8.49-1.7-9.68,3.89-13.24,9.49-19.18,30.19-50.32,87.36-77.95,108.21-7.47,5.64-34.53,16.26-37.03,20.9-4.29,7.97,6.94,6.07,10.27,6.16,18.3.48,34.87-.44,51.74-8.26l-20.67,31.02c-4.16,5.19-28.42,24.05-20.67,31,2.83,2.53,28.83,8.11,34.97,8.48,34.49,2.04,70.62-14.44,97.11-35.62,7.69-6.15,28-22.72,23.05-30.73-38.77,35.75-82.91,66-138.58,57.9-5.47-5.03,19.69-24.14,22.56-29.13l31.23-51.5c-14.32-9.71-14.1,11.33-24.78,16.37-.86.4-15.82,1.55-18.9,1.78-4.44.33-11.12,3.32-10.11-3.67,51.98-22.98,67.61-85.33,91-132.39Z"/>
        <path class="cls-2" d="M549.3,1927.05c-9.85,34.9-78.53,87.73-105.76,113.49-15.77,14.92-31.56,30.93-45.4,47.66,8.44-.86,17.75-9.48,24.52-14.76,33.95-26.49,111.76-93.75,132.04-128.58,13.3-22.84,8.4-42.16,8.9-67.61-18.69,10.24-9.45,32.69-14.29,49.81Z"/>
        <path class="cls-2" d="M1157.12,2539.01c14.18-2.08,30.13-16.84,46.54-19.65,23.42-4.01,53.16.31,77.74-.91,6.91-.34,11.78-4,6.16-8.27-26.66-1.78-58.08-8-84.69-4.02-13.63,2.04-25.28,16.86-41.67,20.38-45.01,9.69-95.2.65-140.58,4.21-8.9.7-22.56,3.56-31.88,5.36-4.39.85-16.5,1.38-15.59,7.13,34.02.13,72.23-10.6,105.59-8.35,25.46,1.72,52.16,7.95,78.36,4.1Z"/>
        <path class="cls-2" d="M1415.72,1122.39c-11.19-6.37-30.71-33.24-43.37-43.57-29.69-24.24-67.97-39.02-105.46-45.51-2.01,11.68,2.56,6.81,9.2,9.21,32.07,11.63,59.66,24.1,86.04,46.52,9.92,8.43,43.86,50.24,48.13,51.46,2.33.67,4.56.8,6.84-.13l44.21-28.46c-11.34-6.16-39.58,13.89-45.59,10.47Z"/>
        <path class="cls-2" d="M1148.76,2241.06c-42.34,19.99-56.27,111.01-55.6,153.29,1.52,1.9,17.16-13.09,16.69-19.87l3.99,23.99c18.69.09,11.22-22.3,12.28-35.27.64-7.83,6.19-17.68,4.25-24.65-.35-1.26-6.09-8.18-8.28-4.22l-16.51,26.92c3.06-29.27,11.72-76.41,31.22-99.06,9.22-10.71,23.38-13.45,30.81-25.02-8.02-1.45-12.12.72-18.84,3.89Z"/>
        <path class="cls-2" d="M801.54,1790.42c26.54-19.19,63.7-61.21,79.86-89.75,3.76-6.65,9.1-14.22,9-22.01-11.27,8.14-17.69,22.91-26.76,33.2-20.04,22.73-89.78,88.32-116.74,94.23-6.87,1.51-21.53-2.66-21.93,4.92,27.84,12.29,54.09-4.34,76.58-20.6Z"/>
        <path class="cls-2" d="M896.62,1335.28c-24.06,19.58-62.48,45.13-90.15,58.78-20.68,10.2-49.46,13.81-64.97,32.23,41.19-11.19,80.98-27.81,117.13-50.39,20.15-12.58,58.23-38.24,73.15-55.09,4.1-4.63,9.93-6.79,8.27-14.46-20.38-3.53-29.68,17.74-43.44,28.94Z"/>
        <path class="cls-2" d="M1142.12,1100.9c-31.31,43.34-64.57,85.42-112.39,111l-19.32,15.81c10.72.79,20.04-5.45,29.03-10.23,35.47-18.88,92.67-68.9,109.6-105.52,6.8-14.72,11.63-33.49,10.27-49.69l-17.19,38.63Z"/>
        <path class="cls-2" d="M1225.49,710.62c-3.73-25.14-32.89-36.36-50.91-50.42l-110.39-36.44c-1.46,10.38,10.42,13.98,17.83,17.31,48.94,22.01,104.96,23.99,143.48,69.55Z"/>
        <path class="cls-2" d="M854.79,1669.92c-3.24,5.68-7.64,8.95-5.72,17.02,13.51-8.66,20.53-25.63,30.9-37.34,24.71-27.89,55.78-49.09,60.07-90.9l-28.95,43.42c-22.99,20.97-40.86,40.68-56.31,67.8Z"/>
        <path class="cls-2" d="M710.47,1848.27c-23.48,20.73-32.11,38.47-49.93,61.77-9.75,12.75-24.08,22.18-30.74,37.5,7.67,1.68,9.84-4.16,14.48-8.25,12.35-10.9,23.02-23.99,35.15-35.18l45.51-64.1c-7.66-1.66-9.83,4.17-14.47,8.26Z"/>
        <path class="cls-2" d="M1439.19,993.53c3.14-2.88,5.31-6.66,6.23-10.82,3.9-17.62,4.39-38.47.64-55.62-3.6-16.45-14.81-42.03-35.37-37-.47,9.74,22.31,20.53,27.1,61.83,1.2,10.34,1.4,41.61,1.4,41.61Z"/>
        <path class="cls-2" d="M476.74,1856.53c31.67-3.52,56.39-45.49,71.11-71.59,6-10.64,14.96-23.79,15.74-35.95-22.47,20.55-33.58,53-53.77,76.52-10.05,11.71-22.76,19.88-33.09,31.02Z"/>
        <path class="cls-2" d="M1250.34,1066.41l48.35,15.74c14.24,1.16,48.17,43.7,59.18,33.87,1.25-7.64-5.33-12.13-10.35-16.51-24.23-21.14-65.32-34.77-97.18-33.1Z"/>
        <path class="cls-2" d="M898.67,2394.35c2.93-3.92,6.04-31.58,4.2-33.11h-16.59s4.14-24.8,4.14-24.8c-10.51-1.88-7.32,1.72-10.15,8.25-5.88,13.61-10,30.61-10.51,45.51l24.8-20.66c1.9,7.47-2.03,13.15-3.38,19.41-1.91,8.89,6.84,6.27,7.49,5.4Z"/>
        <path class="cls-2" d="M1407.52,1033.32c-12.56-3.89-25.99-4.15-38.27-9.31-16.16-6.8-23.7-24.99-44.45-19.65,20.29,19.55,39.56,32.94,68.25,33.1,4.83.03,15.51,2.92,14.47-4.13Z"/>
        <path class="cls-2" d="M881.7,2327.85l4.57-32.78c-9.27-1.6-11.12,5.98-14.62,12.25-9.9,17.78-16.57,42.57-22.58,62.2,14.2-1.64,18.22-38.34,21.3-40.91,2.01-1.68,8.08.44,11.33-.76Z"/>
        <path class="cls-2" d="M1035.22,1860.7c18.05,19.73,58.58,28.17,83.93,23.91l27.76-11.5c-21.12,2.37-42.4,6.72-63.89,3.89-16.55-2.18-31.58-13.02-47.8-16.3Z"/>
        <path class="cls-2" d="M1510.96,1111.88c-18.14-20.17-50.69-33.66-74.44-14.43l39.17,2.16,35.27,12.27Z"/>
        <path class="cls-2" d="M795.24,2495.66c-9.36,5.89-20.32,13.85-29.3,20.53-2.19,1.63-15.04,4.08-7.88,10.53,4.83,4.36,51.34-26.12,53.77-37.2-9.02-2.39-11.19,2.75-16.59,6.14Z"/>
        <path class="cls-2" d="M1230.6,1965.03c15.71,6.89,30.98,14.35,47.59,19.07l25.91-7.57c-32.4,5.59-54.41-10.27-82.72-20.7-2.2,12,3.21,6.55,9.21,9.19Z"/>
        <path class="cls-2" d="M1146.9,2398.46c-13.62-5.88-14.25,31.22-12.39,33.11,15.55,3,20.95-11.97,20.65-24.84l-8.24,4.24-.02-12.51Z"/>
        <path class="cls-2" d="M667.05,1811.03c6.1,6.16,28.34-24.65,31.03-28.94,3.35-5.34,8.74-7.23,6.18-16.55l-16.39,14.6c-1.41,6.42-25.46,26.2-20.82,30.89Z"/>
        <path class="cls-2" d="M1386.87,1790.33c18.96,5.64,48.41,9.5,62.04-8.23-16.49,4.22-30.85,3.85-47.6,4.11-4.95.07-15.44-3.03-14.44,4.12Z"/>
        <path class="cls-2" d="M1004.22,2005.47c4.94-.05,15.44,3.04,14.44-4.11-24.76,3.53-46.48-9.25-70.31-12.41-.58,5.44,9.34,7.13,13.79,8.93,16.8,6.81,23.76,7.79,42.08,7.59Z"/>
        <path class="cls-2" d="M1204.82,2059.28c-24.84-.47-45.18-18.98-70.3-16.55l52.61,19.75,17.69-3.2Z"/>
        <path class="cls-2" d="M1335.37,1914.24c6.81.68,13.65.3,20.48.22,4.94-.06,15.44,3.04,14.44-4.11l-62.03-8.27,27.11,12.16Z"/>
        <path class="cls-2" d="M1510.97,1529.72c19.59,1.35,35.98-8.14,45.5-24.79-10.85-.39-14.58,11.32-24.57,14.7-9.34,3.16-23.91-3.16-20.93,10.09Z"/>
        <rect class="cls-2" x="1167.59" y="2419.16" width="8.29" height="37.26"/>
        <path class="cls-2" d="M720.81,1736.55c15.08-.1,18.76-18.45,24.82-28.92-15.08.1-18.76,18.45-24.82,28.92Z"/>
        <path class="cls-2" d="M1463.03,1715.89c3.42-.29,15.7-2.61,14.82-8.25-8.92.08-17.94-.21-26.9-.02-4.98.1-15.43-3.07-14.45,4.11,9.29.02,16.91,4.97,26.52,4.15Z"/>
        <path class="cls-2" d="M1142.77,2133.74c-8.34-2.36-16.27,3.67-23.11,4.05-6.7.37-21.12-9.41-22.37.04,9.26,2.55,16.88,5,26.91,4.39,4.53-.28,18.62-1.74,18.57-8.48Z"/>
        <path class="cls-2" d="M901.92,2457.55c-1.91,4.27-9.6,16.94-7.35,19.52,6.52,7.49,8.88-5.51,10.14-8.42,4.94-11.4,11.98-4.94,10.52-16.38-8.96.03-9.44-3.37-13.31,5.27Z"/>
        <path class="cls-2" d="M1144.88,1798.61c4.99-.1,15.41,3.1,14.43-4.1-21.06,1.51-41.33-1.26-62.03-4.14l26.78,8.35c6.93.07,13.88.02,20.82-.12Z"/>
        <rect class="cls-2" x="1523.43" y="1478.18" width="35.07" height="5.92" transform="translate(-595.99 1523.45) rotate(-45)"/>
        <path class="cls-2" d="M1053.83,1393.22c-5.6-4.76-15.15-12.1-22.75-12.4l37.21,33.07c4.04-4.42-10.76-17.53-14.47-20.68Z"/>
        <rect class="cls-2" x="1192.43" y="1637.31" width="28.94" height="4.09"/>
        <path class="cls-2" d="M2228.99,954.41l-43.7-70.04c.03,29.9,26.09,54.15,39.29,78.66,2.47,4.59-1.3,5.36-4.49,7.88-70.91,2.96-142.39,21.1-212.71,8.63,2.37,7.94,15.89,11.24,23,12.14,55.72,7.02,118.2-3.34,173.4-8.13,30.12-2.61,64.42,8,25.21-29.14Z"/>
        <path class="cls-2" d="M1980.78,970.96c-10.56-14.32-49.89-70.15-52.61-82.15-6.31-27.85-1.18-79.24,7.71-106.96,2.12-6.61,15.57-31.72,13.57-33.98-6.61-7.48-8.8,5.7-10.18,8.21-15.2,27.51-21.26,65.84-23,97.16-2.85,51.5,31.11,86.04,62.16,124.21,7.5,9.22,15.07,19.84,24.79,26.9.04-15.17-14.69-22.86-22.45-33.38Z"/>
        <path class="cls-2" d="M2212.36,875.91c-4.18-19.51-13.05-39.56-14.77-59.71-4.57-53.7,11.94-106.71,33.18-155.2-10.91-2.15-7.05,2.42-10.2,8.19-18.31,33.55-28.88,71.28-31.27,109.58-2.33,37.41,8.95,74.81,20.81,109.72,7.93.78,3.17-8.25,2.24-12.58Z"/>
        <path class="cls-2" d="M2168.72,876.07c-2.42-8.57-5.01-10.48-11.72-9.86-57.2,5.33-116.63,19.29-172.02,26.78l-31.37,7.9c45.12-.4,90.2-8.92,134.73-16.23l80.38-8.59Z"/>
        <path class="cls-2" d="M2239.07,934.01c-3.37,4.21,6.52,14.54,8.23,12.41,3.37-4.21-6.52-14.54-8.23-12.41Z"/>
        <path class="cls-2" d="M1974.31,938.15c-3.37,4.21,6.52,14.54,8.23,12.41,3.37-4.21-6.52-14.54-8.23-12.41Z"/>
        <path class="cls-2" d="M1990.86,958.83c-3.37,4.21,6.52,14.54,8.23,12.41,3.37-4.21-6.52-14.54-8.23-12.41Z"/>
        <path class="cls-2" d="M2390.15,867.92c26.41-1.44,59.62-5.4,86.59-8.58,3.29-.39,22.37-5.21,14.65-12.2-7.1-6.43-74.93,6.33-89.22,7.98-18.79,2.17-39.01,2.23-57.84,4.22-6.37.67-12.58.76-14.27,8.46,19.89-.85,40.19,1.21,60.09.12Z"/>
        <path class="cls-2" d="M2334.17,962.97l-20.67-31.02-12.38-10.35c-4.35,4.96,25.04,38.8,33.05,41.37Z"/>
        <path class="cls-2" d="M1618.53,838.88l-24.83-4.13,22.77,12.36c3.55.49,2.4-7.98,2.05-8.22Z"/>
        <path class="cls-2" d="M2644.47,946.4c67.17,4.09,103.85-74.96,114.83-131.29,9.99-51.28,5.02-106.91-11.26-156.37-4.15-12.61-10.34-28.79-18.79-39.13-5.72,2.89-.13,11.19,1.29,15.26,23.84,68.14,31.73,138.13,12.06,209.05-10.79,38.9-36.68,83.33-77.27,96.48-7.3,2.37-20.52-1.15-20.86,6Z"/>
        <path class="cls-2" d="M2806.92,657.79c-26.04-90.71-97.4-176.51-200.68-152.94-44.42,10.14-108.28,34.87-151.84,38.36-7.84.63-16.54-7.46-31.27-6.5-50.21,3.24-112.2,32.41-148.02,67.25-119.16,40.79-234.61,93.41-353.48,134.67-39.53,13.72-25.3,1.01-52.95-3.06-20.66-3.04-42.26-1.21-59.67,10.4-5.41,3.6-9.72,12.04-15.32,13.64-26.81,7.63-52.97,6.02-81.17,22.26-9.6,5.53-19.41,21.11-26.4,23.24-12.01,3.66-35.89-5.23-53.22-3.55-11.81,1.14-19.8,7.09-30.91,8.33,6.58-25.88,37.06-15.63,53.77-31.02l-45.48-10.31c23.44-1.24,48.4,4.12,70.31-6.22l-65.02-21.86-38.38-.89,36.33,11.21,13.3,9.43c-10.35-.31-20.82.5-31.21.2-6.17-.18-11.62-4.26-12.27-4.24-1.32.04-6.39,4.24-4.12,8.2,4.47,7.81,17.93,12.93,26.91,12.43-4.93,12.41-26.86,8.69-39.41,8.37-4.23-.11-22.68-7.82-22.6,1.96,0,.88,8.95,8.08,11.5,13.28,20.85,42.52-2.91,61.92-7.1,98.72-3.04,26.62,0,59.66,10.02,84.53,4.18,10.36,18.43,26.89,18.45,35.06.03,11.55-16.66,40.44-24.66,49.7-25.56,29.61-22.49,3.46-48.48-1.12-34.97-6.16-61.74,4.23-89.59,23.65-26.45-24.62-47.94-51.17-79.84-69.34-76.02-43.3-129.6,1.02-209.23-10.02-46.38-6.43-65.52-37.24-98.2-65.19.29,7.78,7.61,16.88,12.4,22.75,12.63,15.5,35.84,36.81,53.61,45.67,79.94,39.84,159.84-24.95,235.64,12.57,11.74,5.81,33.33,21.91,43.74,30.72,8.25,6.98,31.75,35.05,37.95,36.81,8.46,2.41,37.84-17.98,53.31-20.04,42.05-5.62,62.93,9.74,83.82,43.95,23.12,37.87,28.64,76.17,33.59,119.54.77,6.78,1.17,11.87-1.77,18.34-4.59,10.1-4.44,2.9-7.16-1.15-6.66-9.89-14.13-19.76-18.96-30.75-2.41-5.49-3.22-10.95-9.06-3.34,19.61,37.95,43.05,79.1,52.68,121.07,5.26,22.94,1.73,48.64,15.56,67.18l-2.3-76.3c-8.87-31.15-20.18-42.36-20.28-74.46-.13-41.68.37-77.45-15.96-116.83-7.63-18.39-19.88-32.26-29.98-48.86,0-8.02,15.43-17.73,20.92-24.84,10.11-13.09,14.58-26.22,22.77-39.24,18.97,17.79,40.88,35.07,68.45,27.02,12.8-3.74,37.55-24.08,47.29-23.2,7.69.7,11.09,8.63,17.26,12.07,34.01,18.97,82.24,5.08,119.45,6.56,8.71.35,16.77,7.22,28.81,6.74,23.3-.93,39.96-19.46,57.91-29.24l51.31,64.85c-9.77,24,2.57,42.98,3.5,62.09.54,11.02-14.53,34.76-23.92,40.41-10.23,6.15-21.9,3.27-26.9,18.6-8.73,26.74,10.31,75.32,33.94,90.6,31.98,20.68,70.61,8.33,87.42,53.25,3.07,8.2,7.55,24.08,7.3,32.26-.63,20.09-29.14,29.19-40.33,48.75-15.87,27.74-6.14,47.46-12.39,70.34-3.81,13.96-37.47,41.66-40.13,51.17-1.96,6.99,7.05,37.78,20.28,30.32l-.1,6.1c-21.56,40.77-42.46,82-62.76,123.42-15.88,32.4-37.59,93.51-56.81,120.23-2.71,3.76-9.77,3.02-14.94,6.5-18.52,12.45-22.61,54.3-24.49,74.89l-279.24,577.13c-8.04,5.55-15.73-1.39-23.22-2-6.53-.53-23.73,1.04-26.17-.72-.82-.59-3.71-12.95-8.57-18.32-6.57-7.26-16.59-7.67-19.96-11.06-3.98-3.99-2.42-13.2-11.65-19.39-22.45-15.05-35.48-2.6-52.34-5.23-45.06-7.04-103.26-39.57-133.48-73.71-7.23-8.16-27.53-34.72-30.88-43.59-4.02-10.63,14.4-3.67,12.36-8.21-2.69-6-22.71-21.24-28.93-28.98-46.13-57.43-38.43-154.51,12.29-206.93,40.47-41.83,83.24-82.4,126.28-121.93,10.54-9.68,27.39-18.63,37.41-28.78,28.13-28.48,84-115.87,99.08-153.27,17.83-44.23,22.68-93.21,37.12-136.63,6.18-18.58,23.43-39.32,31.94-59.08,20.71-48.1,37.58-123.42,27.91-174.27-3.97-20.88-15.94-59.17-25.21-78.21-9.61-19.73-32.24-47.84-47.21-64.49-4.22-4.7-6.41-10.17-14.19-8.54,28.96,39.84,61.09,79.41,53.76,132.36-11.24-6.47-12.92-20.88-20.62-31.07-8.96-11.86-20.69-21.69-30.87-35.51-1.79-2.42-3.78-14.66-10.54-7.86-3.43,3.44,24.53,35.76,26.78,41.46,7.95,20.12-5.4,72.67-13.51,93.9-7.06,18.48-9.63-4.03-12.05-10.39-4.06-10.69-8.2-22.36-12.84-32.7-9.95-22.18-47.49-72.75-46.56-90.18l8.24-58.26-3.82-14.16c-15.3,99.67-48.86,200.38-144.79,248.21-1.84-2.13,17.66-44.4,19.7-52.67,7-28.3,4.81-59,5.08-87.97l-7.21,19.66c-2.27,7.71-.14,15.83-1.27,23.6-3,20.65-11.24,12.69-25.69,19.78-10.46,5.13-23.82,19.43-36.13,13.5,22.98-30.1,42.19-71.04,48.63-108.57.8-4.69,3.5-14.79-1.05-17.6l-37.15,86.96c-5.4,14.64-27.01,34.44-31.08,47.53-3.15,10.14,16.29,6.65,21.91,5.35,19.48-4.52,35.22-27.09,56.64-24l-10.33,33.08-26.88,57.91c25.68-1.41,49.47-16.74,70.03-31.3,40.95-28.99,57.78-50.28,76.8-96.95,4.67-11.46,9.2-24.85,10.38-37.22,21.98,20.51,37.88,56.03,50.41,84.01,3.33,7.44,18.05,52.79,21.95,52.45,9.71-.85,18.94-23.01,21.71-32.03,6.32-20.56,9.14-45.83,9.35-67.2,11.22,2.47,12.79,24.07,16.83,28.72.52.6,11.54.59,11.93.14,3.17-3.56.68-20.59,8.42-20.58,15.78,50.25,9.03,104.19-5.15,154.08l-34.13,73.43c-4.05-8.83-1.83-21.19-2.06-31.05-.2-8.48,2.96-11.94-8.26-10.29,16.98,94.18-28.16,185.41-75.08,264.12-34.47,1.2-68.65,8.23-102.8,13.06l27.07,4.31c15.14-.54,30.42-7.1,45.22-8.55,6.2-.61,17.81-1.48,22.83,2.14-17.68,19.53-34.21,40.35-51.6,60.1-29.65,33.69-57.49,58.59-89.15,88.74-31.17,29.68-57.61,63.59-88.72,93.3-16.77,11.36-36.84,7.79-55.96,8.18-.98,7.18,9.47,4.02,14.45,4.11,10.34.2,20.74-.15,31.03.01l-24.79,92.78c14.62,41.46,15.05,83.99,53.75,112l-16.52,4.1c27.56,25.53,38.46,60.99,68.26,84.82,25.91,20.72,96.02,53.37,128.55,57.61,13.43,1.75,33.17-5.18,38.98,8.58l-20.67.03c-3.88,14.2,12.66,16.22,12.39,28.94l-78.86-10.06c-4.54-3.17-4.69-14.97-8.4-20.56-.82-1.23-18.65-19.24-20.55-20.82-28.4-23.54-40.88-6.9-69.87-12.92-4.11-.85-12.62-4.14-8.45,4.35,6.41,13.05,52.11,1.07,66.15,10.4-.58,8.11-9.77,1.12-16.16,10.7-11.43,17.11-5.71,52.18,20.25,38.9l4.2,12.41c-5.57,4.73-34.68-9.86-41.17-14.65-7.05-5.21-12.71-17.45-15.54-18.41-15.86-5.42-44.12-5.07-61.29-4.25-10.42.49-43.56,9.31-51.17,3.79-.92-.67-2.6-9.63-5.09-13.45-10.27-15.78-22.85-16.46-36.54-25.59-11.6-7.74-14.28-19.14-32.24-21.84-14.56-2.19-23.9,8.3-38.26,7.55-1.69-20.24,2.18-40.14,9.19-59.05,3.67-9.9,17.5-29.45,15.22-37.46-.65-2.27-27.42-34.1-30.48-36.08-5.16-3.35-13.11-3.48-14.12-4.43-2.35-2.22-10.27-48.02-19.15-61.52-1.52-2.31-6.28-7.25-6.2-1.62,2.66,7.28-6.84,7.34-8.24,5.72-1.22-1.41.68-21.04.09-26.99-1.41-14.38-5.9-31.18-8.09-45.69-1.37-9.05,1.42-35.3-10.7-38.94-16.03-4.81-7.24,8.83-12.17,16.62-6.77,10.71-17.58,4.91-25.24,4.4-4.76-.31-15.07-3.82-14.21,3.7,16.44,7.25,28.98,2.83,45.49,0,2.42,23.97,12.9,49.31,16.25,72.71.9,6.29-.77,25.78.27,26.61,1.77,1.42,12.6-2,16.13.43,1.61,1.11,15.62,32.83,16.19,35.53,2.34,11.01.09,23.14.83,34.36l14.46-12.37c5.75,9.68,22.55,24.27,22.57,35.06.02,11.46-13.9,42.29-16.07,58.28-1.37,10.12.25,20.59-.31,30.72-14.8,1.49-24.51-12.89-35.87-19.95-3.49-2.17-11.01-8.63-13.75-2.8,14.81,14.69,36.31,39.49,59.15,34.46,7.62-1.68,16.72-10.04,25.65-10.04,10.08,0,24.64,9.05,31.02,16.97-9.14,3.84-16.52,12.97-18.97,22.75-1.56,6.23,2.78,11.74,2.35,12.18-.51.53-9.61,2.13-13.86,4.87-10.61,6.85-22.18,19.67-23.32,32.58-24.88-3.28-34.8-45.96-53.52-51.94-7.06-2.25-13.66-2.22-20.91-1.82l12.41,16.51-37.24.04c.03-20.47-1.7-43.42-10.32-62.06-8.82,6.04-5.06,9.19-4.3,16.52,1.15,11.04,3.28,18.59,1.9,30.76-.6,5.25-11,45.81-16.21,39.59.37-6.46,1.55-22.81-6.25-24.8-18.19-4.66-24.22,34.98-26.93,47.61-1.54,7.19,4.42,12.23-8.2,10.27-.05-20.13-4.08-74.06,16.43-84.96,21.15-11.24,19.1,20.45,20.8,22.94,6.64,9.76,18.65-17.11,1.67-28.59-37.09-25.09-57.74,46.71-51.33,74.09-3.34-.46-11.28.82-12.17-.17-.83-.92-7.42-20.89-7.84-23.61-1.87-11.99,5.39-30.12,10.98-41.13,6.84-13.49,26.52-30.57,29.71-40.62,3.73-11.74-26.14,17.25-28.93,20.71-18.06,22.42-16.26,28.05-20.7,53.76-2.32,13.44-58.75,60.19-73.2,63.29-6.62,1.42-17.27,2.11-23.62.41-9.82-2.63-1.8-14.15-2.11-22.3-1.04-26.93-29.99-30.86-29.29-33.11,3.6-11.57,23.42-26.59,34.31-31.88,16.5-8.01,43.43-10.72,56.72-17.74,1.93-1.02,5.28-5.25,4.09-6.23l-12.4-2.08c10-8.85,18.83-21.55,20.65-35.17-14.04,14.04-27.82,33.54-45.73,43.19-10.18,5.49-22,5.09-31.73,9.64-8.2,3.83-12.39,12.77-17.61,15.47-13.81,7.15-57.59-9.82-76.45-10.61-19.39-.81-35.53,6.6-53.84,8.58-40.08,4.34-80.26-2.16-119.86-4.42-9.31-.53-19.71,0-29.17.19-4.98.11-15.43-3.07-14.45,4.12,12.51-2.57,23.61,3.2,35.05,4.26,47.2,4.38,93.9,5.7,140.66,3.93,35.51-1.34,71.07.14,105.6,8.41-2.99,15.89-17.2,14.77-28.77,22.93-21.09,14.87-23.02,36.35-29.54,59.41l-36.84.38c-5.47,4.65-.63,7.93,6.14,8.27,10.25.51,20.64-.7,30.84.24l4.39,28.73c4.11,5.79,7.44-.69,9.13-5.28,2.86-7.76,6.36-24.83,14.15-27.29,7.11-2.25,31.77-1.26,40.52-.24,13.86,1.61,34.09,12.68,45.5,12.08,9.95-.52,20.8-8.84,30.24-11.4,17.78-4.83,36.54-5.8,54.87-5.14-1.7-7.72-7.92-7.75-14.27-8.43-23.39-2.51-47.82,7.04-70.42,8.55-27.26,1.82-53.28-7.43-80.77-4.24-6.94-6.22,20.54-20.59,26.88-20.59,9.74,0,25.15,14.61,37.38,16.36,38.06,5.44,66.89-29.56,90.87-53.63,5.47,4.49,6.73,12.09,12.82,16.08,7.37,4.83,21.31,3.99,22.11,4.79,1.05,1.03,3.65,20.87,6.5,28.66,1.59,4.37,5.77,19.58,12.31,16.6,9.35-4.26,5.21-18.77,6.47-26.7,3.15-19.91,12.6-13.58,24.78-24.81,7.26-6.7,21.65-33.07,27.22-34.82,28.37.19,43.32-8.28,63.59,13.97,8.38,9.2,14.59,24.04,30.92,25.22,21.74,1.57,18.32-25.07,27.91-34.67,9.52-9.53,20.74-5.74,30.12-5.77,4.07-.01,8.15-2.81,11.83-2.46,12.41,1.16,37.53,31.02,39.9,44.56,13.31-2.45,10.73-39.5,12.39-41.37,33.76-.24,66.66,7.16,100.81,3.95,13.79,27.16,39.54,33.94,68.41,33.66l4.53,24.46c9.82,1.89,6.54-1.06,9.11-5.36,7.47-12.49,11.03-29.73,11.57-44.32,24.6,2.17,48.51,8.13,72.7,12.12,8.04,1.33,16.47-.7,24.4.42,14.97,2.13,35,16.16,35.27,32.97-8.83,8.15-58.37-15.36-66.18,4.13,10.97-2.18,20.84,3.54,30.92,4.26,48.98,3.48,97.65-11.27,145.09-8.57,26.24,1.49,85.69,9.44,108.19,20.06,17.86,8.44,28.58,26.16,46.72,33.92,80.98-206.35,164.5-411.98,250.28-616.43,2.51-5.98,9.81-31.2,11.01-32.42,1.41-1.42,10.33-1.64,14.78-3.77,13.35-6.4,41.03-65,22.54-78.19,20.69-69.03,61.65-137.77,81.79-206.5,1.83-6.23-1.79-6.97,8.48-5.93-.68,5.56,1.36,10.23,3.37,15.23,9.46,23.48,73.1,178.93,70.54,188.69-.88,3.34-5.67,6.2-6.88,9.97-6.32,19.66,14.2,85.34,44.07,80.46l259.16,661.35c15.02,2.23,10.91-5.09,9.54-17.86l-263.94-668.91,10.26,8.14,140.78,347.58,12.37,20.73c3.15-6.69-4.43-18.84-7.24-25.86-43.3-108.42-84.73-217.86-129.34-325.72-6.04-14.6-22.41-29.27,5.83-24.46l242.55,574.5c9.08,12.99,19.14,12,12.49-4.22-59.49-137.74-119.52-275.37-178.07-413.51-17.95-42.36-36.02-85.16-51.73-128.21,19.21,2.65,46.49-8.3,57.36,10.88l220.16,476.98c6.44.41,14.03,3.44,11.99-5.84l-239.87-515.11,16.05.48,213.54,430.19,12.13,13.17-75.46-157.12-141.2-280.79,7.99-5.93c91.59,189.85,186.34,379.66,283.44,566.74l6.24-6.23c-92.25-185.93-190.51-368.85-279.67-556.32,5.02-20.54-3.48-44.96-18.15-60.14-6.47-6.7-13.6-7.68-20.19-17.04-17.7-25.18-118.88-223.98-123.9-248.42-2.16-10.53,1.18-22.03-1.59-31.5-1.95-6.65-19.84-27.97-19.85-29.75-.02-1.9,24.74-14.12,16.53-31.03,14.7,9.55,17.36,26.06,34.9,33.31,16.86,6.97,39.94,2.21,45.97-16.53,3.98-12.37,3.66-78.12-.06-91.4-6.6-23.59-37.77-35.74-50.04-11.99l-107.61-33.06c-3.88-1.02-8.72-2.83-9.86-6.93-7.02-25.46,47.99-63.78,61.89-82.26,20.64-27.44,19.42-61.07,12.35-93.11-7.17-.99-4.04,9.49-4.11,14.45-.34,21.48,1.02,38.17-7.41,58.8-12.47,30.52-39.67,39.33-56.51,63.46-5.81,8.32-13.65,35.34-15.27,36.47-6.37,4.44-33.95,2.87-42.37,5.18-10,2.74-5.09,18.14-6.91,19.99-1.07,1.09-27.14,4.69-30.07,3.89-11.53-3.15-13.42-30.8-18.57-43.74-5.69-14.29-13.74-26.6-25.58-36.47v-2.04s20.66-4.14,20.66-4.14c-42.5-3.95-83.05.21-102.89-43.99-5.62-12.52-10.41-24.71-8.82-38.77,30.06-3.75,63.77-8.77,93.24-16.41,5.73-1.48,12.75-.11,14.34-8.39-34.21-3.36-68.5,12.44-101.44,16.49-10.67,1.31-5.22-7.4-6.14-12.36l109.01-15.5c49.69,14.66,105.27,48.43,154.52,60.18,5.88,1.4,11.88.91,17.8.8l-.02-16.53c-7.25-1.8-1.61,7.79-6.44,8.54-14.41,2.27-31.44-14.41-47.32-12.71,11.47-20.73,38.54-14,53.76-33.07.15,4.79-.13,9.66.02,14.49.16,5.03-3.11,15.42,4.12,14.46,1.17-11.25-1.6-24.36-.05-35.22,2.46-17.26,16.14-6.95,26.84-6,7.85.7,16.7-1.7,24.27.53,5.67,1.67,10.03,10.05,15.35,13.76,14.47,10.09,63.01,7.9,79.44,1.09,52.71-21.86,48.66-127.84,11.53-162.54-20.21-18.89-70.28-10.4-92.69,2.78-37.13,21.83-25.89,71.16-27.52,106.93l-70.26,8.37c-2.08,16.83,10.43,4.53,14.49,4.13,19.09-1.9,40.58,1.37,59.98,0l4.14,12.39c-20.39,4.26-44.17-8.9-63.31-3.28-7.73,2.27-14.37,15.09-25.69,3.34-14.38-14.92-18.66-61.75-4.04-78.6,10.06-11.59,56.98-18.33,72.34-29,3.13,3.57-20.38,51.91,0,57.91l12.42-66.18-61.49,20.11c.2-7.87-7.83-7.18-10.05-12.74-4.41-11.04-3.19-25.75-7.18-38.28-2.49-7.83-8.62-10.92-8.13-18.74,12.98-.78,26.45,1.04,39.39.09,46.19-3.38,88.79-12.16,135.42-3.25,17.33,3.31,43.32,15.88,58.93,15.78,39.06-.23,66.7-21.92,103.3-25.15,17.61-1.56,40.66-3.36,57.91-4.14,45.16-2.04,100.87,8.47,141.59-11.48,103.1-50.51,121.58-228.42,93.37-326.7ZM729.22,2516.52c-9.35,5.02-29.47,1.95-39.72,9.93-10.99,8.55-12.67,34.59-26.59,41.65,2.03-20.04,17.23-62.49,39.25-66.21,4.14-.7,25.72-.66,26.72.22.74.65,5.28,11.75.33,14.41ZM1130.17,2462.84l-28.74-8.47c26.92-30.97,61.36,14.39,62.01,43.41l-33.27-34.94ZM1357.87,2514.31l-9.15-25.99c-7.68-13.72-17.51-20.3-32.18-11.24l-.02-16.54c35.77-3.67,45.51,22.38,41.35,53.76ZM1466.76,2487.61c-3.68.79-6.99.74-9.74-.37-4.4-1.77-7.37-6.23-8.1-14.28l12.4,6.19,12.4,6.19c-2.43,1.03-4.76,1.8-6.97,2.27ZM2048.76,1438.73c2.03,23.11-7.56,28.38-28.95,28.94-.39-19.99,7.61-34.06,28.95-28.94ZM1587.54,2530.83c-17.29-8.04-43.42,1.94-62.4,3.88-7.49.76-14.99.31-22.45.28,5.37-9.18,4.53-18.58,4.15-28.93l82.74,16.56c.34.25,1.49,8.73-2.04,8.21ZM1613.08,2526.2c-15.39-2.24-35.1-16.64-52.49-16.03l.66-9.66,272.92-566.9,5.68-2.89c13.41,9.12,8.03,11.02,2.86,23.87-61.74,153.36-156.76,305.38-219.45,458.98-2.45,6-6.2,10.72-4.71,18.02,6.25-.97,7.79-7.72,10.38-12.35,67.77-121.04,128.35-267.37,188.96-394.35,12.9-27.03,27.51-59.18,38.25-87.17,6.28-5.71,19.03.6,31.29,1.58l-259.86,569.59c-3.33,5.5-6,18.54-14.49,17.31ZM1639.19,2530.86l265.23-591.11,49.18-.44-260.83,599.67c-18.3-1.04-34.83-10.99-53.59-8.12ZM1750.87,2576.37l-45.13-29.33.28-9.18,256.76-587.32,9.44-11.24,1.92,10.18-206.7,498.63c11.95,2.18,147.1-337.13,217.08-500.65,4.81-7.03,19.05-3.32,27-4.01l-260.65,632.93ZM2034.28,1926.89s-116.66,5.61-173.5-4.82c-15.16-2.78-18.94-10.75-19.24-17.92-.31-7.57,8.85-42.76,12.81-47.61,7.06-8.66,10.87,17.58,20.65,12.39l-3.94-10.37c38.1-84.49,81.07-167.45,120.57-251.51,2.51-5.34,10.57-30.32,12.04-31.37,6.62-4.72,49.05,9.05,49.17,14.01l-128.65,274.66c-2.23,1.61-24.1,1.67-28.49-1.59,33.63-77.23,72.02-153.08,104.2-230.89,4.64-11.23,10.98-23.83,11.59-35.95l-128.21,277.15c59.55-4.19,118.91,15.35,177.88,4.17-6.9,14.72-7.61,46.39-26.88,49.63ZM1945.33,1848.25l97.14-211.04c10.66-11.05,30.55,1.72,43.52.08l-91.47,210.51-49.18.44ZM1986.72,1856.54v12.46s-45.54-.03-45.54-.03v-12.46s45.54.03,45.54.03ZM2044.22,1866.49c-5.57,10.3-18.3,6.04-28.55,6.59l61.09-147.8,13.34-42.47-13.19,21.94c-23.28,52.7-44.86,106.43-68.66,158.87-1.53,3.36-9.72,16.8-9.08,3.34l95.49-223.06c4.37-12.71,33.06-3.42,36.82-6.62,5.46-4.65.63-7.93-6.14-8.27-16.4-.81-33,1.08-49.39-.3-6.13-.52-13.18-3.19-20.88-4-4.61-.48-8.71,1.96-6.28-5.99.58-1.89,11.63-25.62,12.83-26.47,2.99-2.14,34.81-.13,43.08-.35,5.58-.15,12.22-4.33,15.95-3.63,11.88,2.25,17.82,33.46,22.41,43.55l-98.85,234.67ZM2135.95,1593.49c-2.79-10.91,17.73-4.86,24.04-5.38l108.02,256c-8.16.66-11.89,1.35-15.78-6.95-19.84-42.41-42.92-96.47-58.69-140.54-7.78-.83.61,19.48,1.81,23.67,10.65,37.27,37.29,88.61,51.27,125.27l-5.49,2.71c-42.96-80.99-69.37-170.31-105.18-254.77ZM2189.15,1631.34c-2.3-7.56-20.4-39.59-16.28-43.69l37.39,1.9,20.52,43.58-41.63-1.79ZM2237.05,1645.49l93,202.77c-16.58-2.21-40.66,6.75-51.6-8.36l-84.91-198.45c11.99,1.76,35.28-4.44,43.51,4.04ZM2321.74,1937.56c-4.42-6.1-15.99-22.47-2.09-23.1,14.25-.64,28.84-.03,43.06.45l8.72,20.21c-16.32,7.35-32.7.99-49.69,2.44ZM2393.64,1864.52c1.88,1.1,15.48,28.59,17.26,33.32,1.68,4.48-3.22,8.35-4.3,8.35h-132.38c-30.32,5.03-12.27,26.41-14.5,28.96-22.38-2.44-38.47-56.08-31.09-70.42,4.86-9.43,30.75-12.59,41.45-12.57,11.28.02,19.81,4.21,28.86,4.49,25.54.78,73.4-4.56,94.71,7.87ZM2370.28,1844.09c1.01,11.98-12.31-10.68-14.82-15.02-10.65-18.42-18.4-39.41-28.77-58.11l-39.09-74.35s-1.48,3.26.36,10.37c1.91,7.36,7.16,18.63,8.46,21.68,13.89,32.83,47.16,88.58,61.58,121.42l-17.69-1.73-115.95-248.1-1.84-12.61,20.21.46,127.56,255.98ZM2245.42,1558.52c5.5,17.31,3.19,18.81-14.35,16.43-.91-9.02-2.9-20.94-12.69-24.54l4.12,24.81c-18.83-.34-37.11-.96-55.41,3.96-8.51-2.31-10.1-33.39-23.17-37.04,2.41,13.27,11.68,22.3,8.25,37.23h-86.87l-2.07-33.12c-4.65-.12-7.43,23.79-6.21,29-15.74,4.34-45.13-19.87-55.91-8.37-5.87,6.26-5.2,28.41-20.6,12.48-1.64-1.69-5.39-8.81-5.74-11.05-.67-4.3,27.02-33.87,32.75-40.71,4.55-5.43,1.26-9.9,9.97-10.54,23.03-1.68,22.63,5.1,38.47,11.65,29.8,12.32,61,1.79,89.9.91,11.65-.36,80.85-1.69,84.29.74,1.31.93,14.2,24.81,15.26,28.15ZM2158.28,1521.35c-7.92.33-15.34,4.09-24.52,4.43-28.43,1.07-58.26,2.32-84.61-8.87l-.4-36.82c-16.3-4.67-4.59,25.3-8.25,28.96h-24.85c-.32-7.4-.44-28.11,4.93-32.35,1.91-1.51,41.89-12.27,47.02-12.95,35.14-4.64,72.71,1.85,107.24,4.02,14.58.92,53.41-3.07,63.43,4.81,6.96,5.47,4.51,32.81,5.13,42.21-1.52,10.54-72.04,6.01-85.11,6.56ZM2071.5,1434.58c48.93,3.74,109.08-14.44,146.86,24.8-53.67,3.13-108.33-12.33-161.32.02-1.59-11.74,1.7-22.71,14.45-24.82ZM2145.96,1381.28c28.71,0,71.19,24.66,101.35,28.51-9.91,18.46-34.87,1.55-49.4-2.35-4.25-1.14-13.42-5.55-12.64,2.29,16.07,1.37,32.68,15.05,47.9,16.52,15.21,1.46,30.97-15.18,46.44-3.31,6.15,4.71,7.61,43.87,11.13,53.03,3.34,0,2.53-22,2.28-27.1-1.14-22.89-12.11-42.04,24.6-39.1,3.55,13.96-12.98,4.5-16.09,14.93-2.4,8.04.64,19.72-.46,28.49,3.84,5.42,7.9-5.41,8.29-8.27.67-4.88-.98-17.52,0-18.63.53-.6,14.56-.62,16.11.44,7.74,5.31,8.61,89.68-6.36,99.1-36.01,22.67-62.12-45.72-79.99-64.46-5.75-6.03-30.3-24.93-37.67-28.52-19.63-9.54-74.66-12.42-84.64-27.04-12.43-18.2,15.14-24.54,29.14-24.54ZM2096.41,1405.37c14.32-1.38,17.05,16.04,30.93,16.83,1.08,6.78-5.58,3.97-10.29,4.11-14.47.44-29.04-.3-43.48-.02,4.3-7,14.86-20.15,22.84-20.92ZM2073.57,1409.78c-7.29,13.23-18.93,20.66-33.07,24.8-5.28-5.31,22.23-32.3,33.07-24.8ZM2308.11,1197.97l-19.41-11.59c13.19,2.11,40.74-7.99,41.35,12.38l-21.94-.79ZM2379.75,1051.87c13.31,16.77,22.62,60.46,19.62,81.79-1.57,11.17-13.23,49.15-20.69,55.78-9.71,8.65-43.45,10.68-40.47-9.29.18-1.19,19.5-10.93,12.53-18.6-7.47-8.21-10.7,15.91-18.58,12.38-15.81-7.09-17.01-72.26-13.7-88.12,5.87-28.08,35.76-66.09,61.29-33.95ZM2277.04,1077.5c.62-2.69,11.42-21.67,12.59-22.56,2.4-1.82,38.83-10.53,40.43-9.21-34.49,39.14-25.86,90.35-12.42,136.49l-32.71-.36c-2.8-11.3-7.64-23.09-8.73-34.71-1.38-14.7-2.15-56.66.84-69.64ZM1597.83,797.51l-24.8,24.8-8.3-24.8h33.09ZM1699.15,1008.5l-2.05,16.51c-63.8,2.97-84.92-66.53-78.61-119.96-15.96,6.94-11.04,20.55-10.09,31.82,2.25,26.63,6.8,44.8,23.16,68.9,12.36,18.2,27.97,18.48,44.86,29.6l-30.97,10.62c-27.21.06-64.3-38.82-74.55-62.3-11.87-27.19-17.03-80.32-9.32-108.7,4.93-18.15,13.48-34.39,28.28-46.18,26.96-21.47,43.84-20.08,76.27-14.82,3.8.62,14.56,1.19,14.4,6.25-.09,2.75-39.76,26.11-37.22,39.29l-4.13-12.4c-7.05-.02-6.62,12.12-10.8,12.71-10.72,1.53-25.89-7.18-36.88-8.5-8.22-.98-6.33,1.27-6.09,8.18l49.68,8.3c-8.59,43.52-2.69,99.27,28.92,132.37l-18.75-41.21c-10.84-37.91-7.05-87.99,22.89-115.99-15.14,52.77-8.79,91.58,9.36,141.68,1.59,4.39,1.34,12.34,7.19,11.37-2.32-19.27-11.09-35.76-12.57-55.66-4.73-63.36,4.4-149.07,78.78-163.57-8.58,11.44-18.78,21.51-25.6,34.37-11.38,21.45-19.49,55.15-20.21,79.3-.37,12.41,6.96,27.12,4.07,36.87-3.64,12.26-23.77-.61-20.29,14.9l20.67-4.14,8.3,37.21c-6.51-.08-14.92.5-16.56,8.29,29.07-6.15,30.56,21.76,45.53,39.29,7.98,9.35,18.05,13.46,24.79,22.76-36.41,5.78-52.11-11.15-72.43-37.19ZM1845.04,1040.51c-10.71-3.47-21.96-12.96-30.07-15.45-5.03-1.54-8.59,1.21-6.14,6.14,2.89,5.8,15.12,6.57,16.53,14.49-11.09-.39-26.19-2.61-36.11-7.31-4.13-1.95-26.57-19.82-30.18-23.6-8.78-9.21-39-64.71-37.04-74.32,2.27-11.12,24.51.32,20.57-14.73-6.24,5.55-24.8,5.47-24.8-2.07,0-22.19-2.88-53.92,0-74.46,1.6-11.41,17.29-44.14,24.79-53.81,8.45-10.9,23.39-20.61,37.25-22.71-7.12,24.16-19.52,48.38-23.8,73.39-.8,4.68-5.01,21.74,3.11,21.74,7.09-65.87,44.64-145.46,124.11-119.93.61,8.4-8.19,2.59-12.41,2.1-46.11-5.36-72.98,23.42-88.91,64.09-23.25,59.38-16.81,115.79,9.47,172.51,5.54,11.96,22.02,20.96,2.81,25.93-5.91,1.53-21.55-.52-22.64,8.36,11.25,6.31,34.32-8.85,38.76-7.86,2.19.49,12.76,10.86,18.98,14.25,8.21,4.47,22.03,10.05,31.24,10.44,19.21.83,31.28-17.12,51.67-12.66-18.89,23.44-40.07,24.25-67.2,15.47ZM1853.09,906.24c-3.77-4.3-13.97-3.43-11.18-13.57,35.15-7.48,50.28-55.75,37.23-86.88,18.35.81,17.85,32.73,16.22,47.25-2.99,26.61-15.51,34.7-32.76,51.99,11.55,3.02,23.57-13.37,33.24-6.4,30.67,44.74,59.75,91.69,93.21,134.39,8.91,11.37,34.43,48.77,51.05,37.12.88-.61,7.66-19.14,2.46-20.29l-8.27,12.39c-40.1-32.74-6.88-45.22,31.02-41.34-12.59,18.88-14.2,40.49-18.36,62.29-19,6.44-44.91,14.9-62.32-.23-51.13-50.46-85.62-124.37-131.52-176.72ZM1817.22,841.06c1.6-10.73,17.24-35.7,27.41-38.79,26.89-8.15,28.6,22.77,25.99,42.57-6.7,50.78-63.98,67.37-53.39-3.79ZM2082.16,1088.84c1.6,14.66,13.55,27.56-2.38,39.56-13.05-18.93-17.47-49.03-13.57-71.44,4.07-23.44,15.34-39.75,40.46-40.19-20.35,22.76-27.91,40.84-24.51,72.07ZM2003.23,1194.63h-28.95s12.27-18.01,12.27-18.01c-.76-4.46,8.1-3,8.37-2.65.94,1.24,9.28,19.75,8.31,20.67ZM2015.67,1186.35c1.27-24,33.23-8.75,41.36-24.78-19.91-2.5-34.92,2.48-51.65,12.41-8.18-1.74-22.44-62.91-18.69-74.5l65.75-3.65c.96.68,6.08,16.62,9.36,21.65,5.86,9,17.51,13.5,15.41,24.6-4.42,23.35-35.72,57.85-61.54,44.27ZM2083.97,1202.17c-1.24.06-20.54-8.15-22.88-9.53-6.39-3.75-3.12-4.56.06-8.35,3.76-4.49,8.44-7.51,11.8-13.03,14.1-23.21,30.49-73.39,45.99-90.52,10-11.05,23.46-11.11,37.37-10.18-4.94,10.75-16.81,9.3-24.3,19.12-11.97,15.69-13.98,54.16-23.3,75.99-2.99,7.01-19.08,36.22-24.74,36.51ZM2172.85,1217.38c-4.51,4.73-11.93,10.14-18.54,10.16-6.46.02-55.9-19-55.88-22.56,28.06-29.46,22.77-77.63,41.35-113.75,7.9-.8,3.21,8.28,2.25,12.6-4.45,20.03-9.31,32.8-5.51,54.74,2.33,13.42,19.71,46.33,29.46,55.6,2.47,2.35,7.56-.4,6.85,3.22ZM2193.54,1087.06c-41.49,2.14-39.3,53.21-26.93,82.8,10.71,25.59,20.89,29.96,47.6,20.66,4.05,3.73-16.3,34.17-39.33,16.57-23.12-17.67-29.52-57.4-26.93-84.92,2.54-27.07,19.69-76.43,45.59-35.1ZM2181.12,1062.27c-.42.47-11.09,2.16-12.36-2.75-3.73-14.41-9.34-36.63-29-34.47,10.16,11.44,16.15,22.51,20.68,37.19-35.62-1.46-47.14-.44-61.12,32.17-2.62,6.11,2.75,11.37-9.2,9.21-1.86-25.3-.27-75.51,28.71-85.04,8.35-2.75,44.11-3.88,50.04.08,7.35,4.91,16.99,38.24,12.24,43.61ZM2261.7,991.82c-78.13,4.09-157.38,15.25-235.59,20.89-10.67.77-21.98-.04-32.68-.62-16.66-20.5-34.16-40.6-49.82-61.87-9.08-12.32-45.43-60.18-43.25-71.2,1.03-5.22,6.45-9.99,7.63-17.5,2.23-14.14-.49-40.75-7.87-53.11-2.74-4.59-30.24-15.69-37.55-15.05l-2.03-12.39c-6.3,15.48-21.85,13.9-33.2,24.73-22.19,21.19-32.84,64.88-10.41,89.27,3.77,4.1,10.49,4.82,12.81,8.65,5.12,8.46,3.7,24.58,8.05,34.53l-.06-26.84,8.39-.12,66.1,101.43c-19.5,1.1-31.54,2.38-45.47-12.4l16.52,18.6c-13.65,13.31-35.79,5.14-49.44-4.32-25.45-17.63-51.15-80.94-54.06-111.42-5.33-55.88,18.93-155.25,91.08-146.92l-18.57,8.27,9.21,4.2,406.71-151.67c2.84,2.68-17.36,28.23-20.36,34.21-40.63,80.97-37.3,183.19,5.59,262.27,16.69,30.78,40.2,54.35,64.21,78.49-18.53.84-37.41-1.05-55.95-.08ZM2547.14,983.55c-78.94,5.26-136.4,25.22-194.42-45.31-55.48-67.44-63.21-181.93-35.42-262.46l145.13-35.52c.81-7.7-8.87-3.79-13.42-3.08-41.16,6.47-81.9,17.39-123.07,23.78-2.38-2.25,10.54-25.94,13.15-30.26,19.26-31.85,45.24-56.32,80.93-68.05,10.26-3.37,7.71-6.02-1.08-5.22-53.8,4.91-101.01,76.36-116.91,123.08-19.42,57.05-19.51,132.24-1.08,189.54,20.05,62.36,67.48,126.1,136.67,134.31.97,7.2-9.44,3.99-14.44,4.1-162.64,3.8-222.57-206.67-169.62-335.07,2.04-4.94,13.87-31.2,15.28-32.29,3.57-2.77,24.03-6.95,23.94,1.23-.02,1.53-12.09,21.01-14.41,26.92-20.12,51.35-31.53,125.15-17.54,178.86,4.42,16.99,14.85,41.05,27.85,52.8-1.81-13.11-11.11-23.65-15.48-36.21-20.37-58.42-13.97-134.33,9.31-191.31,4.12-10.08,11.68-33.04,22.73-24.82-7.14-20.39,17.42-37.92,24.86-55.84-1.38-5.16-9.16,4.61-10.45,6.09-13.94,15.99-16.55,38.96-43.35,33.17-4.75-3.92,40.67-50.1,48.08-54.47,13.03-7.7,84.12-32.66,98.8-32.62,6.86.02,13.34,4.08,20.56,4.48,38.53,2.1,71.96-13.33,109.74-16.63-38.66,42.06-61.4,90.39-70.01,147.15-14.68,96.76,12.68,199.04,74.15,274.77l-68.16,8.4c-21.58-3.61-58.88,4.92-78.03-.78-1.83-.55-26.76-20.83-29.82-23.96-14.39-14.74-26.23-43.74-39.1-56.06-4.84-4.64-5.13-.48-4.19,4.19,4.35,21.57,52.41,82.42,73.25,88.1,17.28,4.72,84.57,1.79,106.94,1.01,21.59-.76,59.14-16.12,72.2,8.06-14.36.82-29.2-1.04-43.54-.08ZM2794.51,854.46c-22.9,78.75-90.47,158.89-180.1,119.94-6.5-2.83-36.44-18.33-27.85-27.98,75.53,55.17,153.93,17.36,186.92-63.34,38.12-93.22,25.89-241.56-42.17-319.32-51.67-59.04-129.99-50.67-177.87,8.27-2.94,3.62-15.15,19.72-12.4,22.75,34.2-27.18,66.82-48.41,107.24-18.31,84.34,62.81,86.67,240.47,16.87,314.13-40.61,42.86-100.14,23.3-122.03-26.94-22.08-50.68-29.93-129.31-27.02-184.17.36-6.88,3.54-13.34,4.34-20.5.47-4.22,2.65-15.72-4.21-14.55-12.69,53.28-9.51,108.82,1.03,162.34,9.65,49.02,27.74,99.1,65.1,133.43-5.94,6.11-3.8,7.25-10.3,2.07-18.05-14.37-37.55-47.47-46.99-68.85-46.61-105.56-43.61-270.23,53.09-347.02,55.44-44.02,120.9-15.62,161.43,33.21,63.09,76,82.15,201.14,54.91,294.83ZM2731.02,708.87c-6.81-75.91-57.78-175.63-148.61-151.34,31.32-32.33,87.87-31.65,122.02-4.1,86.35,69.65,104.51,292.45,33.21,376.54-54.8,64.63-132.52,34.97-175.91-24.9,11.08.55,17.91,11.41,27.96,15.42,14.54,5.8,32.46,3.95,47.6.13,79.47-20,99.97-142.25,93.73-211.77Z"/>
        <path class="cls-2" d="M2077.7,1223.6c-16.98-1.35-9.44,17.14-5,27.77,18.68,44.75,65.11,71.44,111.4,47.59,7.84-4.04,29.03-16.8,19.8-25.71-53.31,61.24-116.16,18.96-126.2-49.65Z"/>
        <path class="cls-2" d="M1865.15,1898.4c-1.92,3.72-9.82,12.49-6.69,16.05,7.33,8.33,19.5-23.11,16.52-28.94-4.99-.41-7.65,8.68-9.83,12.89Z"/>
        <rect class="cls-2" x="2214.25" y="1484.23" width="4.09" height="20.66"/>
        <path class="cls-2" d="M2375.56,1138.84c.4,8.02-.52,6.52,8.24,6.15,9.52-30.52,3.87-78.03-28.9-91.01-2.45,2.71,12.11,22.62,14.46,28.96,7.52,20.24,5.18,35.53,6.2,55.9Z"/>
        <path class="cls-2" d="M2241.12,1864.86c-9.79,7.13-3.49,6.89-1.24,13.59,3.06,9.14,5.32,19.96,15.7,23.6.57-13.74-3.17-28.47-14.46-37.19Z"/>
        <path class="cls-2" d="M1525.44,772.71c-7.43,11.84-13.87,24.2-22.76,35.11-21.99,26.98-42.33,32.59-45.6,74.41-.71,9.01,3.89,5.69,5.81,1.52,0,0,1.74-9.55,6.06-18.38,4.31-8.83,7.45-12.75,9.81-13.93,2.35-1.18,3.33,1.96,3.33,1.96,0,0-2.94,2.75-5.69,6.08-1.7,2.07-7.17,11.07-10.57,23.54-.27.98-.39,2.01-.39,3.03.01,5.62.08,11.29.02,16.93-.06,4.93,3.04,15.44-4.11,14.45-15.11-64.83-79.74-106.1-135.21-135.77-20.2-10.81-41.83-18.15-62.08-28.94-7.78-4.14-53.02-33.32-58.09-39.41-.24-.28-.48,5.71,4.7,12.12,4.08,5.06,14.66,14.04,12.26,14.26-12.02,1.08-23.29,2.87-31.31,5.78-22.88,8.28-37.73,27.56-60.6,30.67-2.15,10.53,10.25,18,11.67,27.62,1.31,8.87-.65,18.19.99,27.97,5.52,33.03,34.73,64.77,69.41,65.05l-29.59,8.41,1,.15c5.7.84,11.47.55,17.15-.42,20.74-3.54,39.74,1.83,61.09-6.09,24.11-8.94,38.26-30.59,61.69-39.69,3.17-9.05-5.34-15.63-7.11-23.18-.82-3.49-4.66-19.53-9.1-32.23-3.35-9.58-7.51-15.99-8.38-20.81l46.96,23.56c75.17,47.58,139.59,110.84,100,206.08-4.34,10.44-12.02,18.27-14.5,28.97-10.23.77-6.98.92-8.2-6.14-3.05-17.7-6.19-26.04-20.89-37.12l-32.91-18.78c-3.72,14.94,13.16,16.81,22.72,24.84,5.93,4.98,11.06,11.1,16.43,16.66l16.66,37.07c38.38-33.4,48.1-78.84,43.49-128.23,13.08,13.78,23.5,29.24,45.47,28.94l-12.4-12.36,7.7-.49c-7.12-10.01,4.69-8.08,13.05-18.09,22.93-27.45,24.22-76.99,12.34-109.66l16.54-2.08c-20.26-8.06-14.11-29.22-26.88-43.41ZM1299.79,857.04c-27.62,28.95-82.98,37.73-115.81,13.02-16.43-12.37-44.35-57.89-16.59-66.57,3.71-1.16,29.61-6.28,31.17-6.01,8.18,1.42,1.49,19.83,2.8,26.07,6.7,31.8,54.41,30.48,61.64-1.08,11.64-3.5,38.26,27.49,36.79,34.57ZM1242.07,793.37h8.23s4.16,16.53,4.16,16.53c-1.3.13-2.5.12-3.59-.01-5.46-.65-8.3-4.36-8.98-9.6-.27-2.09-.2-4.43.18-6.92ZM1308.23,847.14c-11.85-7.83-20.91-19.29-31.11-29.05-2.55-2.44-7.39-3.02-9.24-5.01-5.79-6.21-5.03-26.87-20.3-31.43-18.38-5.49-24.95,4.16-37.31,6.8-15.55,3.32-32.78-.52-48.85,9.07-6.86-13.74,8.05-25.15,18.93-30.71,64.98-33.24,128.17,9.6,127.87,80.32ZM1523.2,841.29c-5.92.02-20.14,4.05-20.14,4.05-1.81-1.45-1.93-5.58-5.54-7.29-2.57-1.22-4.22-1.33-7.23-1.25,17.59-21.75,29.57-28.69,32.92,4.49ZM1491.94,854.81s1.34,3.33,1.15,5.63c-.19,2.31-2.8,1.15-2.8,1.15l1.65-6.79ZM1518.37,918.67c-5.7,11.62-19.35,25.04-31.2,14.23-1.11-1.02-8.19-12.7-8.63-14.2-1.37-4.74-2.24-13.53-2.24-13.53,6.63-3.45,16.93-10.59,21.36-19.62,8.61-17.56-2.1-32.97,23.69-38.28,13.99.17,2.56,60.11-2.97,71.4Z"/>
      </g>
    </g>
  </g>
</svg>